<?xml version="1.0" encoding="UTF-8"?>
<svg version="1.1" xmlns="http://www.w3.org/2000/svg" width="286" height="549">
<path d="M0 0 C0.70378784 -0.00656616 1.40757568 -0.01313232 2.13269043 -0.01989746 C12.78797205 -0.05211435 20.88441739 1.497682 30.3046875 6.59765625 C34.79816644 8.99004791 39.33420465 9.91379028 44.3125 10.8125 C57.73822176 13.32695783 67.55574266 18.55436331 78.4375 26.625 C79.613125 27.44097656 79.613125 27.44097656 80.8125 28.2734375 C81.34875 28.71945313 81.885 29.16546875 82.4375 29.625 C82.4375 30.285 82.4375 30.945 82.4375 31.625 C83.02015625 31.86605469 83.6028125 32.10710938 84.203125 32.35546875 C97.72617198 40.03901817 106.7855416 63.18029148 110.94921875 77.69140625 C112.20660319 82.31274203 113.38957425 86.95147292 114.4375 91.625 C114.61780762 92.39207275 114.79811523 93.15914551 114.98388672 93.94946289 C115.98153014 99.83384086 115.68255098 105.91596602 115.6875 111.875 C115.68817474 112.59841583 115.68884949 113.32183167 115.68954468 114.06716919 C115.67347009 124.89077477 115.18463412 135.10170398 112.4375 145.625 C112.27121094 146.28854492 112.10492188 146.95208984 111.93359375 147.63574219 C108.07215414 162.83122214 102.0995595 177.54675267 95.25 191.62890625 C94.2489955 193.72891797 94.2489955 193.72891797 94.4375 196.625 C95.571875 196.73714844 96.70625 196.84929687 97.875 196.96484375 C111.59201909 198.6479229 111.59201909 198.6479229 116.3125 204.3125 C116.86679688 205.12074219 117.42109375 205.92898437 117.9921875 206.76171875 C118.46914062 207.37660156 118.94609375 207.99148437 119.4375 208.625 C120.4275 208.625 121.4175 208.625 122.4375 208.625 C122.80101562 207.52091797 122.80101562 207.52091797 123.171875 206.39453125 C127.03123152 195.15786631 127.03123152 195.15786631 130.4375 192.625 C134.15726403 192.11650328 137.72230812 192.06477265 141.4375 192.625 C143.4375 194.625 143.4375 194.625 143.75 198 C143.6950955 201.77468429 142.81079867 205.01279762 141.75 208.625 C140.45272812 213.42188906 140.23619035 216.20674631 142.578125 220.61328125 C144.66252998 225.49268381 144.56339247 231.03937765 144.57121277 236.27043152 C144.57547775 237.56690613 144.57974274 238.86338074 144.58413696 240.19914246 C144.58378751 241.61868289 144.58332602 243.0382233 144.58276367 244.45776367 C144.5857589 245.96640099 144.58916226 247.47503754 144.59294128 248.9836731 C144.60175006 253.06864889 144.60411813 257.15360372 144.60475707 261.23858809 C144.60546953 263.79575742 144.60760759 266.35292148 144.61025429 268.91008949 C144.6194985 277.84574342 144.62359047 286.78138246 144.62280273 295.71704102 C144.6222027 304.02224786 144.63274225 312.3273896 144.6485464 320.63257998 C144.66166202 327.78189719 144.66698492 334.93119323 144.66634732 342.08052236 C144.66609345 346.34198092 144.66888303 350.60338162 144.67952538 354.86482811 C144.68927389 358.87776738 144.68923972 362.8905943 144.68200874 366.90353775 C144.68097113 368.36754459 144.68327621 369.83155868 144.6893692 371.29555321 C144.77504082 393.32612195 144.77504082 393.32612195 139.5625 403.0625 C139.07007813 404.00996094 138.57765625 404.95742188 138.0703125 405.93359375 C134.06505691 412.5355581 130.21082981 415.2383351 123.4375 418.625 C118.83094463 419.26991775 116.10531181 418.76700587 112.375 416.125 C104.84211875 410.39172886 100.48811258 401.47907311 96.125 393.3125 C95.58810547 392.32443359 95.05121094 391.33636719 94.49804688 390.31835938 C90.58683036 383.07299107 90.58683036 383.07299107 89.4375 379.625 C87.1275 379.625 84.8175 379.625 82.4375 379.625 C85.09563199 412.15862578 88.16208268 444.59285387 92.02563477 477.00439453 C93.46485758 489.18031923 94.74737928 501.34507978 95.64453125 513.57421875 C95.72724777 514.679897 95.80996429 515.78557526 95.89518738 516.92475891 C97.41621186 539.1569322 97.41621186 539.1569322 94.4375 543.625 C92.56835938 543.98144531 92.56835938 543.98144531 90.28125 543.953125 C89.43393311 543.94861328 88.58661621 543.94410156 87.71362305 543.93945312 C86.33944214 543.90754883 86.33944214 543.90754883 84.9375 543.875 C83.50627808 543.85856445 83.50627808 543.85856445 82.04614258 543.84179688 C75.6976159 543.74455814 69.3829641 543.41053406 63.04980469 542.98583984 C54.93485403 542.49964999 46.81387282 542.50999372 38.6875 542.5 C37.97774017 542.49750244 37.26798035 542.49500488 36.53671265 542.49243164 C34.48796796 542.48650038 32.43937163 542.48804878 30.390625 542.4921875 C29.19598633 542.49331543 28.00134766 542.49444336 26.77050781 542.49560547 C23.49714029 542.55137979 23.49714029 542.55137979 20.54516602 543.11352539 C16.6063358 543.761797 12.74710634 543.85667537 8.76171875 543.94140625 C7.92730255 543.96227798 7.09288635 543.98314972 6.23318481 544.00465393 C3.53054595 544.07051277 0.82781898 544.12953789 -1.875 544.1875 C-2.79511871 544.20834656 -3.71523743 544.22919312 -4.66323853 544.25067139 C-44.08978089 545.14162301 -44.08978089 545.14162301 -59.26171875 543.78125 C-65.70981858 543.47601451 -72.1384386 544.0827091 -78.5625 544.625 C-78.5625 545.285 -78.5625 545.945 -78.5625 546.625 C-85.1625 546.625 -91.7625 546.625 -98.5625 546.625 C-95.5625 537.625 -95.5625 537.625 -93.375 535.625 C-89.73282377 534.33000401 -86.4149946 533.95148259 -82.5625 533.625 C-82.30855469 532.73296875 -82.05460937 531.8409375 -81.79296875 530.921875 C-81.44878906 529.75140625 -81.10460937 528.5809375 -80.75 527.375 C-80.41355469 526.21484375 -80.07710937 525.0546875 -79.73046875 523.859375 C-78.5625 520.625 -78.5625 520.625 -76.86328125 518.578125 C-75.29141761 516.62772915 -75.29141761 516.62772915 -75.65234375 513.828125 C-76.71666376 510.08244944 -78.30567292 506.79437557 -80.125 503.375 C-83.14215967 497.53709612 -85.93961416 491.65016205 -88.5625 485.625 C-94.10433477 472.97741849 -100.45292979 460.78825909 -106.90161133 448.58398438 C-109.51287367 443.63686428 -112.10190861 438.68024161 -114.625 433.6875 C-115.17285156 432.60597656 -115.72070312 431.52445312 -116.28515625 430.41015625 C-119.97324913 422.36853476 -119.3988029 414.26144602 -116.5625 406 C-114.25134688 400.02086511 -111.58358099 394.23908776 -108.80249023 388.46582031 C-105.91576549 382.46078277 -103.24244843 376.37682659 -100.625 370.25 C-100.04057129 368.88476196 -100.04057129 368.88476196 -99.44433594 367.49194336 C-96.64364828 361.25261395 -96.64364828 361.25261395 -95.37890625 354.59765625 C-94.41235233 339.71272595 -88.8803996 326.43312545 -83.5625 312.625 C-82.83173041 310.68370697 -82.10123823 308.74230948 -81.37109375 306.80078125 C-76.82924651 294.9061965 -72.01336356 283.86982917 -63.15625 274.48828125 C-61.53609232 272.59412631 -60.55658039 270.77946607 -59.4375 268.5625 C-54.61166438 260.49827468 -43.64903927 257.2369696 -35 255.03515625 C-32.5625 254.625 -32.5625 254.625 -29.95703125 254.76171875 C-27.50423226 254.85356559 -27.50423226 254.85356559 -25.82421875 253.234375 C-25.04498047 252.31398437 -25.04498047 252.31398437 -24.25 251.375 C-20.02597543 246.81967938 -15.44826381 244.60738768 -9.625 242.625 C-7.4473484 241.83301977 -7.4473484 241.83301977 -6.75 239.9375 C-6.11684483 234.11854322 -6.11684483 234.11854322 -7.5625 228.625 C-9.22528087 227.95579645 -10.91949586 227.36379776 -12.625 226.8125 C-17.64085529 225.06415357 -22.45989349 223.08106394 -26.5625 219.625 C-26.5625 218.965 -26.5625 218.305 -26.5625 217.625 C-27.40554687 217.26148438 -27.40554687 217.26148438 -28.265625 216.890625 C-38.08792445 211.47833755 -43.7698458 201.32824844 -48.5625 191.625 C-49.04589844 190.65433594 -49.52929688 189.68367187 -50.02734375 188.68359375 C-55.45806982 176.28701235 -56.52728975 162.27285527 -58.3359375 148.98046875 C-59.80219397 137.51888796 -59.80219397 137.51888796 -63.6953125 126.6953125 C-70.16171523 111.25750418 -65.46488272 89.21710953 -61.5625 73.625 C-62.5525 73.625 -63.5425 73.625 -64.5625 73.625 C-65.46414285 53.61353784 -61.76015515 34.50430041 -48.8125 18.5625 C-40.98634089 10.58437664 -31.17598244 6.83114072 -20.71484375 3.66796875 C-13.28704326 1.21044368 -8.115833 0.06131692 0 0 Z M25.75 231.0625 C23.74958873 234.96806485 24.61228781 238.42718146 25.4375 242.625 C28.26681852 243.43428705 30.74834077 243.73648599 33.6875 243.6875 C34.925 243.666875 36.1625 243.64625 37.4375 243.625 C39.37798082 236.66814701 39.37798082 236.66814701 38.4375 229.625 C31.86597823 229.08638162 31.86597823 229.08638162 25.75 231.0625 Z M-63.5625 380.625 C-64.05878906 381.61757813 -64.55507812 382.61015625 -65.06640625 383.6328125 C-65.39189453 384.28306396 -65.71738281 384.93331543 -66.05273438 385.60327148 C-66.77382443 387.04692924 -67.49253607 388.49177719 -68.20898438 389.93774414 C-69.97070919 393.48566218 -71.75481329 397.01083273 -73.65234375 400.48828125 C-73.97452881 401.0920459 -74.29671387 401.69581055 -74.62866211 402.31787109 C-75.51139591 403.96702554 -76.41143655 405.60688234 -77.3125 407.24609375 C-80.44880959 415.72393061 -77.90209955 422.35603851 -74.5625 430.375 C-70.23338786 441.21848554 -67.04889732 452.13746834 -64.21484375 463.44238281 C-63.90933594 464.62541992 -63.60382813 465.80845703 -63.2890625 467.02734375 C-63.02689941 468.08429443 -62.76473633 469.14124512 -62.49462891 470.23022461 C-62.18702637 471.02050049 -61.87942383 471.81077637 -61.5625 472.625 C-60.0775 473.12 -60.0775 473.12 -58.5625 473.625 C-56.28589178 456.13871136 -55.62418587 438.53757449 -54.77392578 420.93847656 C-54.59983218 417.35150246 -54.41196232 413.76548031 -54.21484375 410.1796875 C-53.73102395 401.31852791 -53.41671391 392.50175282 -53.5625 383.625 C-58.37459901 381.33454986 -58.37459901 381.33454986 -63.5625 380.625 Z " fill="#E4CCAB" transform="translate(131.5625,2.375)"/>
<path d="M0 0 C0.70378784 -0.00656616 1.40757568 -0.01313232 2.13269043 -0.01989746 C12.78797205 -0.05211435 20.88441739 1.497682 30.3046875 6.59765625 C34.79816644 8.99004791 39.33420465 9.91379028 44.3125 10.8125 C57.73822176 13.32695783 67.55574266 18.55436331 78.4375 26.625 C79.613125 27.44097656 79.613125 27.44097656 80.8125 28.2734375 C81.34875 28.71945313 81.885 29.16546875 82.4375 29.625 C82.4375 30.285 82.4375 30.945 82.4375 31.625 C83.02015625 31.86605469 83.6028125 32.10710938 84.203125 32.35546875 C97.72617198 40.03901817 106.7855416 63.18029148 110.94921875 77.69140625 C112.20660319 82.31274203 113.38957425 86.95147292 114.4375 91.625 C114.61780762 92.39207275 114.79811523 93.15914551 114.98388672 93.94946289 C115.98153014 99.83384086 115.68255098 105.91596602 115.6875 111.875 C115.68817474 112.59841583 115.68884949 113.32183167 115.68954468 114.06716919 C115.67347009 124.89077477 115.18463412 135.10170398 112.4375 145.625 C112.27121094 146.28854492 112.10492188 146.95208984 111.93359375 147.63574219 C108.07215414 162.83122214 102.0995595 177.54675267 95.25 191.62890625 C94.2489955 193.72891797 94.2489955 193.72891797 94.4375 196.625 C95.571875 196.73714844 96.70625 196.84929687 97.875 196.96484375 C111.59201909 198.6479229 111.59201909 198.6479229 116.3125 204.3125 C116.86679688 205.12074219 117.42109375 205.92898437 117.9921875 206.76171875 C118.46914062 207.37660156 118.94609375 207.99148437 119.4375 208.625 C120.4275 208.625 121.4175 208.625 122.4375 208.625 C122.80101562 207.52091797 122.80101562 207.52091797 123.171875 206.39453125 C127.03123152 195.15786631 127.03123152 195.15786631 130.4375 192.625 C134.15726403 192.11650328 137.72230812 192.06477265 141.4375 192.625 C143.4375 194.625 143.4375 194.625 143.75 198 C143.6950955 201.77468429 142.81079867 205.01279762 141.75 208.625 C140.45272812 213.42188906 140.23619035 216.20674631 142.578125 220.61328125 C144.66252998 225.49268381 144.56339247 231.03937765 144.57121277 236.27043152 C144.57761024 238.21514343 144.57761024 238.21514343 144.58413696 240.19914246 C144.58378751 241.61868289 144.58332602 243.0382233 144.58276367 244.45776367 C144.5857589 245.96640099 144.58916226 247.47503754 144.59294128 248.9836731 C144.60175006 253.06864889 144.60411813 257.15360372 144.60475707 261.23858809 C144.60546953 263.79575742 144.60760759 266.35292148 144.61025429 268.91008949 C144.6194985 277.84574342 144.62359047 286.78138246 144.62280273 295.71704102 C144.6222027 304.02224786 144.63274225 312.3273896 144.6485464 320.63257998 C144.66166202 327.78189719 144.66698492 334.93119323 144.66634732 342.08052236 C144.66609345 346.34198092 144.66888303 350.60338162 144.67952538 354.86482811 C144.68927389 358.87776738 144.68923972 362.8905943 144.68200874 366.90353775 C144.68097113 368.36754459 144.68327621 369.83155868 144.6893692 371.29555321 C144.77504082 393.32612195 144.77504082 393.32612195 139.5625 403.0625 C139.07007813 404.00996094 138.57765625 404.95742188 138.0703125 405.93359375 C134.06505691 412.5355581 130.21082981 415.2383351 123.4375 418.625 C118.83094463 419.26991775 116.10531181 418.76700587 112.375 416.125 C104.91588698 410.44787381 100.46480675 401.55459086 96.0625 393.5 C95.24458984 392.05560547 95.24458984 392.05560547 94.41015625 390.58203125 C93.63865234 389.17630859 93.63865234 389.17630859 92.8515625 387.7421875 C92.3870166 386.90284668 91.9224707 386.06350586 91.44384766 385.19873047 C90.26848547 382.19274595 90.25735642 379.82502623 90.4375 376.625 C89.7775 376.955 89.1175 377.285 88.4375 377.625 C84.70598352 378.09292032 81.15967074 378.20229384 77.4375 377.625 C74.44572211 374.70279834 73.60023617 372.88880218 73.0703125 368.7734375 C73.8160076 362.37949867 79.75691793 357.72328371 84.4375 353.625 C90.75377628 348.69379884 97.48073746 344.48454646 104.75 341.125 C107.07082619 339.84963009 108.17664588 339.17453268 109.31640625 336.7734375 C109.90875191 334.05890858 110.16740001 331.39187797 110.4375 328.625 C110.78128602 326.25552098 111.15511201 323.89199351 111.53369141 321.52783203 C111.79706793 319.87910134 112.0523422 318.22904983 112.29833984 316.57763672 C112.87401759 312.77093816 113.53965902 309.05801188 114.515625 305.33203125 C115.79363365 300.19292021 116.44037231 295.13218077 114.4375 290.125 C112.92908081 286.35395202 113.28013271 282.63786586 113.4375 278.625 C112.7775 278.955 112.1175 279.285 111.4375 279.625 C109.0849616 279.7219531 106.7295305 279.7547905 104.375 279.75 C103.10527344 279.75257813 101.83554688 279.75515625 100.52734375 279.7578125 C97.4375 279.625 97.4375 279.625 96.4375 278.625 C96.36250497 276.92861243 96.3543077 275.22916839 96.375 273.53125 C96.38273438 272.50128906 96.39046875 271.47132813 96.3984375 270.41015625 C96.42447917 268.22005208 96.45052083 266.02994792 96.4765625 263.83984375 C96.48429688 262.80988281 96.49203125 261.77992188 96.5 260.71875 C96.51740234 259.29079102 96.51740234 259.29079102 96.53515625 257.83398438 C96.68767566 255.65011331 96.68767566 255.65011331 95.4375 254.625 C94.7563294 250.6845574 94.52413566 247.04153512 96.7421875 243.6015625 C97.84676666 242.30672091 98.95360327 241.01380221 100.0625 239.72265625 C101.71873538 237.19595625 101.80186178 235.61909584 101.875 232.625 C102.08390064 227.3783801 104.0376031 225.16751416 107.6484375 221.51953125 C110.19866634 218.81896141 111.72802041 215.90720081 113.4375 212.625 C112.77105469 213.06070313 112.10460937 213.49640625 111.41796875 213.9453125 C91.45322945 226.84560558 91.45322945 226.84560558 82.125 226.6875 C80.908125 226.666875 79.69125 226.64625 78.4375 226.625 C78.95699219 227.40101563 79.47648438 228.17703125 80.01171875 228.9765625 C90.61558357 245.40177269 93.8723367 261.37139732 93.4375 280.625 C90.73398086 277.97099587 88.10241656 275.28715154 85.5703125 272.46875 C84.82974609 271.64697266 84.82974609 271.64697266 84.07421875 270.80859375 C83.06988597 269.69007326 82.0698408 268.56768736 81.07421875 267.44140625 C71.74178269 257.13936644 62.19209485 254.5100901 48.61938477 253.82714844 C46.89242442 253.75167556 45.16499093 253.68715538 43.4375 253.625 C43.01791016 255.25308594 43.01791016 255.25308594 42.58984375 256.9140625 C39.14969426 267.99251002 26.4765671 275.93207547 16.8359375 281.40625 C9.91594781 284.92259655 3.23513498 286.75874337 -4.5625 285.625 C-13.22665827 282.76259602 -18.94588099 277.04720751 -23.359375 269.25390625 C-25.12955388 265.38595045 -25.92525689 261.87684821 -25.5625 257.625 C-23.37199413 252.14873534 -19.20666976 249.44708488 -14.0625 246.875 C-10.82386578 245.71834492 -8.91435939 245.5102103 -5.5625 245.625 C-5.70308476 243.16626232 -5.84972999 240.70814825 -6 238.25 C-6.03931641 237.55132812 -6.07863281 236.85265625 -6.11914062 236.1328125 C-6.30530134 232.25139508 -6.30530134 232.25139508 -7.5625 228.625 C-9.22528087 227.95579645 -10.91949586 227.36379776 -12.625 226.8125 C-17.64085529 225.06415357 -22.45989349 223.08106394 -26.5625 219.625 C-26.5625 218.965 -26.5625 218.305 -26.5625 217.625 C-27.12453125 217.38265625 -27.6865625 217.1403125 -28.265625 216.890625 C-38.08792445 211.47833755 -43.7698458 201.32824844 -48.5625 191.625 C-49.04589844 190.65433594 -49.52929688 189.68367187 -50.02734375 188.68359375 C-55.45806982 176.28701235 -56.52728975 162.27285527 -58.3359375 148.98046875 C-59.80219397 137.51888796 -59.80219397 137.51888796 -63.6953125 126.6953125 C-70.16171523 111.25750418 -65.46488272 89.21710953 -61.5625 73.625 C-62.5525 73.625 -63.5425 73.625 -64.5625 73.625 C-65.46414285 53.61353784 -61.76015515 34.50430041 -48.8125 18.5625 C-40.98634089 10.58437664 -31.17598244 6.83114072 -20.71484375 3.66796875 C-13.28704326 1.21044368 -8.115833 0.06131692 0 0 Z M25.75 231.0625 C23.74958873 234.96806485 24.61228781 238.42718146 25.4375 242.625 C28.26681852 243.43428705 30.74834077 243.73648599 33.6875 243.6875 C34.925 243.666875 36.1625 243.64625 37.4375 243.625 C39.37798082 236.66814701 39.37798082 236.66814701 38.4375 229.625 C31.86597823 229.08638162 31.86597823 229.08638162 25.75 231.0625 Z " fill="#B76B58" transform="translate(131.5625,2.375)"/>
<path d="M0 0 C0.70378784 -0.00656616 1.40757568 -0.01313232 2.13269043 -0.01989746 C12.78797205 -0.05211435 20.88441739 1.497682 30.3046875 6.59765625 C34.79816644 8.99004791 39.33420465 9.91379028 44.3125 10.8125 C57.73822176 13.32695783 67.55574266 18.55436331 78.4375 26.625 C79.613125 27.44097656 79.613125 27.44097656 80.8125 28.2734375 C81.34875 28.71945313 81.885 29.16546875 82.4375 29.625 C82.4375 30.285 82.4375 30.945 82.4375 31.625 C83.02015625 31.86605469 83.6028125 32.10710938 84.203125 32.35546875 C97.72617198 40.03901817 106.7855416 63.18029148 110.94921875 77.69140625 C112.20660319 82.31274203 113.38957425 86.95147292 114.4375 91.625 C114.61780762 92.39207275 114.79811523 93.15914551 114.98388672 93.94946289 C115.98153014 99.83384086 115.68255098 105.91596602 115.6875 111.875 C115.68817474 112.59841583 115.68884949 113.32183167 115.68954468 114.06716919 C115.67347009 124.89077477 115.18463412 135.10170398 112.4375 145.625 C112.27121094 146.28854492 112.10492188 146.95208984 111.93359375 147.63574219 C108.15138611 162.51942966 102.45588347 176.97901166 95.4375 190.625 C94.7775 190.625 94.1175 190.625 93.4375 190.625 C93.19 191.32625 92.9425 192.0275 92.6875 192.75 C89.66276064 199.70690052 85.14956937 203.88633571 79.4375 208.625 C78.20695431 209.68590256 76.97770445 210.74831077 75.75 211.8125 C74.65235069 212.75762236 73.54758936 213.69452061 72.4375 214.625 C71.33341797 215.59179688 71.33341797 215.59179688 70.20703125 216.578125 C66.90728799 219.01686332 63.57420818 220.59008064 59.8125 222.1875 C59.10246826 222.48978516 58.39243652 222.79207031 57.66088867 223.10351562 C47.06905311 227.52487268 38.97619209 229.14759371 27.4375 227.625 C27.1075 226.635 26.7775 225.645 26.4375 224.625 C27.530625 224.274375 28.62375 223.92375 29.75 223.5625 C45.47394651 217.56184197 55.23349846 205.55063111 62.46240234 190.83935547 C65.17453856 184.68034809 66.83211388 178.14335169 68.4375 171.625 C69.0975 171.955 69.7575 172.285 70.4375 172.625 C75.51487698 173.25405556 79.21682315 173.55998652 83.375 170.375 C84.055625 169.4675 84.73625 168.56 85.4375 167.625 C85.95094971 167.00206055 86.46439941 166.37912109 86.9934082 165.73730469 C91.39996391 159.29173918 90.77577996 149.88212292 90.75 142.375 C90.76611328 141.42109375 90.78222656 140.4671875 90.79882812 139.484375 C90.80320854 133.17657393 90.12851497 128.61501663 85.75 123.75 C81.40903164 121.63817755 77.19488552 122.05282797 72.75 123.5 C69.11222086 126.84282407 67.40962861 131.15204447 65.4375 135.625 C64.7775 135.625 64.1175 135.625 63.4375 135.625 C61.20614649 125.32279336 59.55756048 115.00823434 58.1328125 104.56640625 C57.59860122 100.67019589 56.94492742 96.80853937 56.25 92.9375 C54.96462224 84.88529883 55.2733093 76.75243945 55.4375 68.625 C53.61025391 68.72941406 53.61025391 68.72941406 51.74609375 68.8359375 C48.45225666 68.97258289 45.17515227 69.02867304 41.87890625 68.9609375 C40.75270874 68.93845947 40.75270874 68.93845947 39.60375977 68.91552734 C36.36093845 68.48061724 34.05366647 67.46769612 31.88671875 65.00390625 C27.35241359 57.56080155 23.63534339 49.7248639 20.4375 41.625 C20.61925781 42.58539185 20.61925781 42.58539185 20.8046875 43.56518555 C21.35362574 46.48010037 21.89562566 49.39626413 22.4375 52.3125 C22.62828125 53.31990234 22.8190625 54.32730469 23.015625 55.36523438 C23.19609375 56.34169922 23.3765625 57.31816406 23.5625 58.32421875 C23.73007813 59.21971436 23.89765625 60.11520996 24.0703125 61.0378418 C24.43467982 63.60512932 24.50278807 66.03592013 24.4375 68.625 C13.39995179 64.03946327 6.26884323 56.97093154 0.4375 46.625 C1.37725057 54.29962965 2.4097497 61.96177447 3.4375 69.625 C-15.9672619 76.29166667 -15.9672619 76.29166667 -24.5 73.75 C-26.5625 72.625 -26.5625 72.625 -28.5625 70.625 C-29.06494141 68.37841797 -29.06494141 68.37841797 -29.4140625 65.6171875 C-29.60742188 64.13798828 -29.60742188 64.13798828 -29.8046875 62.62890625 C-29.93101563 61.59636719 -30.05734375 60.56382813 -30.1875 59.5 C-30.38859375 57.93958984 -30.38859375 57.93958984 -30.59375 56.34765625 C-30.92427197 53.77430666 -31.2468456 51.20020854 -31.5625 48.625 C-33.15865583 51.48455992 -33.86943785 53.77632345 -34.16015625 57.03125 C-34.23943359 57.85753906 -34.31871094 58.68382812 -34.40039062 59.53515625 C-34.47451172 60.38980469 -34.54863281 61.24445312 -34.625 62.125 C-34.77995986 63.82315521 -34.93742414 65.52108415 -35.09765625 67.21875 C-35.163479 67.96833984 -35.22930176 68.71792969 -35.29711914 69.49023438 C-35.5625 71.625 -35.5625 71.625 -36.5625 75.625 C-41.8425 75.625 -47.1225 75.625 -52.5625 75.625 C-55.10496902 95.26981064 -56.53503601 114.85415799 -57.5625 134.625 C-61.43603516 132.84179687 -61.43603516 132.84179687 -62.57421875 130.890625 C-62.79722656 130.22546875 -63.02023438 129.5603125 -63.25 128.875 C-63.48074219 128.22015625 -63.71148437 127.5653125 -63.94921875 126.890625 C-68.5912793 109.7416115 -65.79835007 90.54949023 -61.5625 73.625 C-62.5525 73.625 -63.5425 73.625 -64.5625 73.625 C-65.46414285 53.61353784 -61.76015515 34.50430041 -48.8125 18.5625 C-40.98634089 10.58437664 -31.17598244 6.83114072 -20.71484375 3.66796875 C-13.28704326 1.21044368 -8.115833 0.06131692 0 0 Z " fill="#111211" transform="translate(131.5625,2.375)"/>
<path d="M0 0 C2.4609375 0.37109375 2.4609375 0.37109375 4.4609375 2.37109375 C4.93742076 7.51711292 4.22763248 11.41930913 2.7734375 16.37109375 C1.47616562 21.16798281 1.25962785 23.95284006 3.6015625 28.359375 C5.68596748 33.23877756 5.58682997 38.7854714 5.59465027 44.01652527 C5.60104774 45.96123718 5.60104774 45.96123718 5.60757446 47.94523621 C5.60722501 49.36477664 5.60676352 50.78431705 5.60620117 52.20385742 C5.6091964 53.71249474 5.61259976 55.22113129 5.61637878 56.72976685 C5.62518756 60.81474264 5.62755563 64.89969747 5.62819457 68.98468184 C5.62890703 71.54185117 5.63104509 74.09901523 5.63369179 76.65618324 C5.642936 85.59183717 5.64702797 94.52747621 5.64624023 103.46313477 C5.6456402 111.76834161 5.65617975 120.07348335 5.6719839 128.37867373 C5.68509952 135.52799094 5.69042242 142.67728698 5.68978482 149.82661611 C5.68953095 154.08807467 5.69232053 158.34947537 5.70296288 162.61092186 C5.71271139 166.62386113 5.71267722 170.63668805 5.70544624 174.6496315 C5.70440863 176.11363834 5.70671371 177.57765243 5.7128067 179.04164696 C5.79847832 201.0722157 5.79847832 201.0722157 0.5859375 210.80859375 C0.09351563 211.75605469 -0.39890625 212.70351563 -0.90625 213.6796875 C-4.91150559 220.28165185 -8.76573269 222.98442885 -15.5390625 226.37109375 C-20.14561787 227.0160115 -22.87125069 226.51309962 -26.6015625 223.87109375 C-34.06067552 218.19396756 -38.51175575 209.30068461 -42.9140625 201.24609375 C-43.45933594 200.28316406 -44.00460938 199.32023438 -44.56640625 198.328125 C-45.08074219 197.39097656 -45.59507812 196.45382812 -46.125 195.48828125 C-46.5895459 194.64894043 -47.0540918 193.80959961 -47.53271484 192.94482422 C-48.70807703 189.9388397 -48.71920608 187.57111998 -48.5390625 184.37109375 C-49.1990625 184.70109375 -49.8590625 185.03109375 -50.5390625 185.37109375 C-54.27057898 185.83901407 -57.81689176 185.94838759 -61.5390625 185.37109375 C-64.53084039 182.44889209 -65.37632633 180.63489593 -65.90625 176.51953125 C-65.1605549 170.12559242 -59.21964457 165.46937746 -54.5390625 161.37109375 C-48.22278622 156.43989259 -41.49582504 152.23064021 -34.2265625 148.87109375 C-31.90573631 147.59572384 -30.79991662 146.92062643 -29.66015625 144.51953125 C-29.06781059 141.80500233 -28.80916249 139.13797172 -28.5390625 136.37109375 C-28.19527648 134.00161473 -27.82145049 131.63808726 -27.44287109 129.27392578 C-27.17949457 127.62519509 -26.9242203 125.97514358 -26.67822266 124.32373047 C-26.10254491 120.51703191 -25.43690348 116.80410563 -24.4609375 113.078125 C-23.18292885 107.93901396 -22.53619019 102.87827452 -24.5390625 97.87109375 C-26.04748169 94.10004577 -25.69642979 90.38395961 -25.5390625 86.37109375 C-26.5290625 86.86609375 -26.5290625 86.86609375 -27.5390625 87.37109375 C-29.8916009 87.46804685 -32.247032 87.50088425 -34.6015625 87.49609375 C-35.87128906 87.49867188 -37.14101562 87.50125 -38.44921875 87.50390625 C-41.5390625 87.37109375 -41.5390625 87.37109375 -42.5390625 86.37109375 C-42.61405753 84.67470618 -42.6222548 82.97526214 -42.6015625 81.27734375 C-42.59382813 80.24738281 -42.58609375 79.21742188 -42.578125 78.15625 C-42.55208333 75.96614583 -42.52604167 73.77604167 -42.5 71.5859375 C-42.49226563 70.55597656 -42.48453125 69.52601563 -42.4765625 68.46484375 C-42.46496094 67.51287109 -42.45335937 66.56089844 -42.44140625 65.58007812 C-42.28888684 63.39620706 -42.28888684 63.39620706 -43.5390625 62.37109375 C-44.2202331 58.43065115 -44.45242684 54.78762887 -42.234375 51.34765625 C-41.12979584 50.05281466 -40.02295923 48.75989596 -38.9140625 47.46875 C-37.25782712 44.94205 -37.17470072 43.36518959 -37.1015625 40.37109375 C-36.87974094 35.17413139 -35.04321299 33.06970576 -31.453125 29.46484375 C-28.64991439 26.3984746 -26.79398154 22.90333004 -24.80078125 19.27734375 C-24.17623047 18.33375 -24.17623047 18.33375 -23.5390625 17.37109375 C-22.8790625 17.37109375 -22.2190625 17.37109375 -21.5390625 17.37109375 C-21.2090625 16.71109375 -20.8790625 16.05109375 -20.5390625 15.37109375 C-19.2190625 15.70109375 -17.8990625 16.03109375 -16.5390625 16.37109375 C-16.29671875 15.63503906 -16.054375 14.89898437 -15.8046875 14.140625 C-10.86291138 -0.24754624 -10.86291138 -0.24754624 0 0 Z " fill="#BB705D" transform="translate(270.5390625,194.62890625)"/>
<path d="M0 0 C11.24285821 4.18170659 25.17115595 10.83290581 32.03515625 21.12890625 C32.26220703 23.12182617 32.26220703 23.12182617 32.23046875 25.359375 C32.22402344 26.16181641 32.21757813 26.96425781 32.2109375 27.79101562 C32.18580078 29.04108398 32.18580078 29.04108398 32.16015625 30.31640625 C32.15113281 31.16138672 32.14210938 32.00636719 32.1328125 32.87695312 C32.10926328 34.96105868 32.07339272 37.04501842 32.03515625 39.12890625 C24.60658482 39.27176339 24.60658482 39.27176339 21.03515625 38.12890625 C20.83921875 38.73734375 20.64328125 39.34578125 20.44140625 39.97265625 C17.21622081 49.425786 12.7822605 58.36395482 7.94628906 67.09472656 C5.52320837 72.50445547 6.82554305 78.12328364 8.79296875 83.484375 C9.57055341 85.43300483 10.36017444 87.37686372 11.16015625 89.31640625 C14.38115383 97.49356757 17.24527469 105.64095274 19.53515625 114.12890625 C19.77766113 115.01731201 20.02016602 115.90571777 20.27001953 116.82104492 C21.28284933 120.6797423 22.1200989 124.40537136 22.50390625 128.37890625 C22.81646637 132.11476129 22.81646637 132.11476129 24.578125 135.0390625 C26.58547447 139.29593497 26.44019295 142.91910225 26.34765625 147.56640625 C26.33855225 148.49855957 26.32944824 149.43071289 26.32006836 150.39111328 C26.04871439 166.62253776 25.04801214 183.02605915 23.03515625 199.12890625 C11.81515625 199.12890625 0.59515625 199.12890625 -10.96484375 199.12890625 C-9.47984375 197.14890625 -9.47984375 197.14890625 -7.96484375 195.12890625 C-5.046875 194.73828125 -5.046875 194.73828125 -1.77734375 194.87890625 C-0.69066406 194.915 0.39601562 194.95109375 1.515625 194.98828125 C2.34707031 195.0346875 3.17851563 195.08109375 4.03515625 195.12890625 C3.98294922 194.1853125 3.98294922 194.1853125 3.9296875 193.22265625 C3.73504774 187.06833245 4.43694964 182.72504356 7.03515625 177.12890625 C7.69515625 176.46890625 8.35515625 175.80890625 9.03515625 175.12890625 C8.75067018 170.13945817 6.77755705 166.21090436 4.47265625 161.87890625 C1.45549658 156.04100237 -1.34195791 150.1540683 -3.96484375 144.12890625 C-9.50667852 131.48132474 -15.85527354 119.29216534 -22.30395508 107.08789062 C-24.91521742 102.14077053 -27.50425236 97.18414786 -30.02734375 92.19140625 C-30.57519531 91.10988281 -31.12304688 90.02835937 -31.6875 88.9140625 C-35.37559288 80.87244101 -34.80114665 72.76535227 -31.96484375 64.50390625 C-29.65369063 58.52477136 -26.98592474 52.74299401 -24.20483398 46.96972656 C-21.31810924 40.96468902 -18.64479218 34.88073284 -16.02734375 28.75390625 C-15.63772461 27.84374756 -15.24810547 26.93358887 -14.84667969 25.99584961 C-11.93447467 19.28336921 -11.93447467 19.28336921 -10.5 12.15234375 C-10.38301758 11.023125 -10.38301758 11.023125 -10.26367188 9.87109375 C-10.1053854 8.28561269 -9.95178117 6.69965758 -9.80273438 5.11328125 C-9.59106691 3.11018429 -9.28511689 1.11753031 -8.96484375 -0.87109375 C-5.76488472 -2.47107326 -3.29590734 -1.05753574 0 0 Z " fill="#BD7462" transform="translate(46.96484375,343.87109375)"/>
<path d="M0 0 C1 3 1 3 1 6 C2.15757812 6.13535156 3.31515625 6.27070313 4.5078125 6.41015625 C18.41532397 8.28211671 18.41532397 8.28211671 22.0625 12.5 C23.79064441 15.01768003 24 15.84205133 24 19 C22.58227539 20.27099609 22.58227539 20.27099609 20.59765625 21.5234375 C19.51532715 22.21590576 19.51532715 22.21590576 18.41113281 22.92236328 C17.63608398 23.4017334 16.86103516 23.88110352 16.0625 24.375 C15.28358398 24.86597168 14.50466797 25.35694336 13.70214844 25.86279297 C-2.80802962 36.20664357 -2.80802962 36.20664357 -11.3125 36.0625 C-13.1378125 36.0315625 -13.1378125 36.0315625 -15 36 C-14.48050781 36.77601563 -13.96101563 37.55203125 -13.42578125 38.3515625 C-2.82191643 54.77677269 0.4348367 70.74639732 0 90 C-2.70351914 87.34599587 -5.33508344 84.66215154 -7.8671875 81.84375 C-8.60775391 81.02197266 -8.60775391 81.02197266 -9.36328125 80.18359375 C-10.36761403 79.06507326 -11.3676592 77.94268736 -12.36328125 76.81640625 C-21.69571731 66.51436644 -31.24540515 63.8850901 -44.81811523 63.20214844 C-46.54507558 63.12667556 -48.27250907 63.06215538 -50 63 C-50.41958984 64.62808594 -50.41958984 64.62808594 -50.84765625 66.2890625 C-54.28780574 77.36751002 -66.9609329 85.30707547 -76.6015625 90.78125 C-83.52155219 94.29759655 -90.20236502 96.13374337 -98 95 C-106.66415827 92.13759602 -112.38338099 86.42220751 -116.796875 78.62890625 C-118.56705388 74.76095045 -119.36275689 71.25184821 -119 67 C-116.80949413 61.52373534 -112.64416976 58.82208488 -107.5 56.25 C-104 55 -104 55 -99 55 C-99 51.37 -99 47.74 -99 44 C-94 45 -94 45 -92 46 C-89.21881917 46.09880893 -86.4682011 46.13893835 -83.6875 46.125 C-82.54764648 46.13080078 -82.54764648 46.13080078 -81.38476562 46.13671875 C-77.45695562 46.12989371 -73.83503488 45.96449979 -70 45 C-69.67 42.69 -69.34 40.38 -69 38 C-67.5459375 37.97873047 -67.5459375 37.97873047 -66.0625 37.95703125 C-44.74101426 37.32597972 -26.02806325 29.33792022 -11 14 C-10.46375 13.4225 -9.9275 12.845 -9.375 12.25 C-8 11 -8 11 -6 11 C-5.62875 9.948125 -5.62875 9.948125 -5.25 8.875 C-3.83911974 5.62997541 -2.02104602 2.89683263 0 0 Z M-67.6875 40.4375 C-69.68791127 44.34306485 -68.82521219 47.80218146 -68 52 C-65.17068148 52.80928705 -62.68915923 53.11148599 -59.75 53.0625 C-58.5125 53.041875 -57.275 53.02125 -56 53 C-54.05951918 46.04314701 -54.05951918 46.04314701 -55 39 C-61.57152177 38.46138162 -61.57152177 38.46138162 -67.6875 40.4375 Z " fill="#B66C5B" transform="translate(225,193)"/>
<path d="M0 0 C0.66 0.33 1.32 0.66 2 1 C-0.44838756 5.17092571 -2.84052345 8.92434619 -6.25 12.375 C-9.47062289 15.94533699 -9.42784809 18.86077971 -9.58984375 23.5234375 C-10.0842282 26.50857788 -11.10740071 27.78533099 -13.0625 30.0625 C-16.23880746 33.78592262 -16.58103279 36.40175412 -16.30859375 41.21484375 C-16.1733534 43.01875459 -16.1733534 43.01875459 -15 44 C-14.91286169 45.70772358 -14.89299993 47.41898649 -14.90234375 49.12890625 C-14.90556641 50.16337891 -14.90878906 51.19785156 -14.91210938 52.26367188 C-14.92467773 53.8965918 -14.92467773 53.8965918 -14.9375 55.5625 C-14.94201172 56.65498047 -14.94652344 57.74746094 -14.95117188 58.87304688 C-14.9630016 61.58205432 -14.98093769 64.2910338 -15 67 C-9.72 67 -4.44 67 1 67 C1.12375 68.381875 1.2475 69.76375 1.375 71.1875 C1.66999373 73.93649955 1.97543868 75.94220865 3.0625 78.5 C5.56042046 85.16112122 3.67700966 91.60110818 1.85546875 98.203125 C0.50812629 104.18311073 -0.14848004 110.25727196 -0.8215332 116.34643555 C-1.92104196 125.46088999 -1.92104196 125.46088999 -5 129 C-7.71484375 130.703125 -7.71484375 130.703125 -10.9375 132.25 C-22.62480533 138.26284528 -32.64832352 145.97248528 -40 157 C-55.77180288 134.4411508 -53.05162322 100.42640431 -48.56103516 74.46191406 C-46.82052034 65.20400753 -44.67948328 56.03310652 -42 47 C-32.57814352 51.35812745 -26.33614653 60.09280074 -20 68 C-19.33587087 50.43747409 -22.20037473 33.18387411 -32.86328125 18.70703125 C-34 17 -34 17 -34 15 C-32.83597656 14.92265625 -32.83597656 14.92265625 -31.6484375 14.84375 C-19.15467081 13.53175541 -9.84629733 7.50194082 0 0 Z " fill="#C1E6F0" transform="translate(244,214)"/>
<path d="M0 0 C0.33 0 0.66 0 1 0 C1 2.64 1 5.28 1 8 C0.02160156 8.25523437 0.02160156 8.25523437 -0.9765625 8.515625 C-7.34642182 10.28189867 -12.43524904 12.10431343 -16.9375 17.1875 C-18.86473989 22.28901736 -17.99961714 26.59283373 -15.9375 31.55859375 C-11.97950236 38.9461064 -6.0228614 44.32571287 2 47 C14.22254697 48.39099882 24.39595304 43.12024171 34 36 C36.73798414 33.63811258 39.39347135 31.22449706 42.00390625 28.72265625 C44 27 44 27 46 27 C45.56192166 32.03790092 44.28337547 36.03243418 42.32617188 40.67578125 C40.7178743 44.707184 39.28841626 48.78634137 37.8671875 52.88671875 C37.56476135 53.75448944 37.26233521 54.62226013 36.95074463 55.5163269 C35.62931914 59.30865896 34.31180234 63.10234564 32.99407959 66.89596558 C30.93926491 72.80904573 28.87567544 78.71893414 26.80078125 84.625 C26.08942246 86.65594256 25.38184831 88.68821403 24.67773438 90.72167969 C23.64360984 93.70589463 22.59664077 96.68531972 21.546875 99.6640625 C21.23433777 100.57531891 20.92180054 101.48657532 20.59979248 102.42544556 C20.30228088 103.2616745 20.00476929 104.09790344 19.69824219 104.95947266 C19.31354767 106.06145493 19.31354767 106.06145493 18.92108154 107.18569946 C18 109 18 109 15 111 C9.5987742 99.58333346 4.44238256 88.06832055 -0.625 76.5 C-1.01274597 75.61535065 -1.40049194 74.73070129 -1.79998779 73.81924438 C-6.84453093 62.30152216 -11.86876809 50.77452393 -16.77313232 39.19628906 C-17.33725312 37.86603589 -17.90367036 36.53675404 -18.47247314 35.20849609 C-19.25191149 33.38556644 -20.0207751 31.55812603 -20.7890625 29.73046875 C-21.21912598 28.71364014 -21.64918945 27.69681152 -22.09228516 26.64916992 C-23 24 -23 24 -23 20 C-26.3 20 -29.6 20 -33 20 C-30.50310435 17.50310435 -29.7369718 17.83872107 -26.3125 17.8125 C-21.01769324 17.40228542 -19.11096751 15.68550035 -15.71875 11.78125 C-12.27704523 8.21439233 -7.68116744 6.57231232 -3.0625 5 C-0.79525019 4.19140674 -0.79525019 4.19140674 -0.1875 1.875 C-0.0946875 0.946875 -0.0946875 0.946875 0 0 Z " fill="#C1E5F0" transform="translate(125,240)"/>
<path d="M0 0 C0.99 0.495 0.99 0.495 2 1 C1.55183136 5.92985504 -0.82033994 9.35166172 -4 13 C-7.28262031 15.18841354 -8.31790898 15.24854665 -12.125 15.1875 C-13.01445312 15.18105469 -13.90390625 15.17460937 -14.8203125 15.16796875 C-17 15 -17 15 -18 14 C-18.3403125 15.13695312 -18.680625 16.27390625 -19.03125 17.4453125 C-24.90770524 36.44095922 -33.83409141 53.37063581 -51.47265625 63.796875 C-54.77286144 65.36791549 -57.36171882 65.91914931 -61 66 C-60.67 66.66 -60.34 67.32 -60 68 C-57.64400765 68.46751788 -57.64400765 68.46751788 -54.9375 68.625 C-54.01839844 68.69976562 -53.09929687 68.77453125 -52.15234375 68.8515625 C-51.08693359 68.92503906 -51.08693359 68.92503906 -50 69 C-50 69.33 -50 69.66 -50 70 C-54.29 70 -58.58 70 -63 70 C-63.33 72.31 -63.66 74.62 -64 77 C-68.4080764 79.18661498 -72.55031847 79.33358689 -77.375 79.3125 C-78.10460937 79.32861328 -78.83421875 79.34472656 -79.5859375 79.36132812 C-84.75810314 79.36594613 -88.45034263 78.51708317 -93 76 C-93.2475 75.030625 -93.495 74.06125 -93.75 73.0625 C-94.66298532 69.85056959 -94.66298532 69.85056959 -97.2734375 68.8984375 C-99.20573008 68.24728137 -101.14493026 67.61633619 -103.08984375 67.00390625 C-107.0701482 65.63083478 -110.76614227 63.72422399 -114 61 C-114 60.34 -114 59.68 -114 59 C-114.56203125 58.75765625 -115.1240625 58.5153125 -115.703125 58.265625 C-127.26290068 51.89595269 -134.61144017 37.8973096 -139 26 C-139.58936911 22.86728966 -139.90873989 19.73627338 -140.1875 16.5625 C-140.26935547 15.73556641 -140.35121094 14.90863281 -140.43554688 14.05664062 C-140.63383855 12.03873118 -140.81835402 10.01947588 -141 8 C-140.01 8.33 -139.02 8.66 -138 9 C-137.04296875 11.1171875 -137.04296875 11.1171875 -136.1875 13.875 C-131.0101962 28.9770975 -121.28278346 42.77758189 -107.5625 51.3125 C-103.15379757 53.40083273 -98.70860051 54.76172482 -94 56 C-93.37464355 56.17418457 -92.74928711 56.34836914 -92.10498047 56.52783203 C-83.22523723 58.51964639 -71.57855345 57.90454959 -63 55 C-62.24203125 54.77828125 -61.4840625 54.5565625 -60.703125 54.328125 C-44.79984351 48.95950131 -33.5920752 35.40740343 -26 21 C-24.23095479 16.70374734 -23.62993738 12.58954377 -23 8 C-21.18529401 6.18529401 -18.26205735 6.74125018 -15.8125 6.625 C-9.84515649 6.20669772 -5.66605783 5.39945204 -1.125 1.3125 C-0.568125 0.6628125 -0.568125 0.6628125 0 0 Z " fill="#A65F50" transform="translate(219,161)"/>
<path d="M0 0 C0.33 0 0.66 0 1 0 C3.26976843 16.750565 4.68564693 33.43598511 5.50805664 50.31738281 C5.69009345 54.05322396 5.88409291 57.78830425 6.08007812 61.5234375 C6.20379874 63.93225716 6.32687031 66.34111026 6.44921875 68.75 C6.50542892 69.85005371 6.5616391 70.95010742 6.61955261 72.08349609 C6.90933624 78.06442173 7.05519715 84.01208755 7 90 C5.989375 89.195625 4.97875 88.39125 3.9375 87.5625 C-12.63166213 75.19356772 -12.63166213 75.19356772 -32 70 C-29.97898446 62.11356124 -27.52998968 54.46252289 -24.75 46.8125 C-24.15566162 45.17655884 -24.15566162 45.17655884 -23.54931641 43.50756836 C-17.83771792 27.95294351 -11.81979815 14.72917429 -1 2 C-0.67 1.34 -0.34 0.68 0 0 Z " fill="#C4E7F0" transform="translate(71,273)"/>
<path d="M0 0 C0.515625 0.2475 1.03125 0.495 1.5625 0.75 C-0.4175 2.07 -2.3975 3.39 -4.4375 4.75 C-3.17268799 4.76981934 -1.90787598 4.78963867 -0.60473633 4.81005859 C4.14609687 4.88687672 8.89665371 4.97546802 13.6472168 5.06738281 C15.69240817 5.10536103 17.73765928 5.14026448 19.78295898 5.171875 C34.69986812 5.40523657 48.71275359 5.90541107 62.875 11.0625 C63.70322266 11.34544922 64.53144531 11.62839844 65.38476562 11.91992188 C72.96210899 14.61289418 80.18410143 17.93275769 84.73046875 24.8359375 C86.19401384 28.20277831 85.87984766 31.13223663 85.5625 34.75 C84.325 34.358125 83.0875 33.96625 81.8125 33.5625 C52.34782051 24.81841087 14.69510463 16.70579846 -15.4375 26.75 C-17.49895107 26.818991 -19.56251401 26.83467727 -21.625 26.8125 C-23.25501953 26.79896484 -23.25501953 26.79896484 -24.91796875 26.78515625 C-25.74941406 26.77355469 -26.58085938 26.76195313 -27.4375 26.75 C-24.55585504 16.85344156 -18.10294856 9.16807606 -9.4375 3.75 C-8.80457031 3.3271875 -8.17164062 2.904375 -7.51953125 2.46875 C-3.10354415 -0.31831222 -3.10354415 -0.31831222 0 0 Z " fill="#38232C" transform="translate(101.4375,10.25)"/>
<path d="M0 0 C6.37640145 1.36029898 10.05200218 3.21692874 13.6640625 8.71484375 C14.10492188 9.46894531 14.54578125 10.22304687 15 11 C15.44085938 11.74378906 15.88171875 12.48757812 16.3359375 13.25390625 C22.38126451 24.37364412 25.21038943 36.79302207 25.0625 49.375 C25.05798828 50.11105469 25.05347656 50.84710938 25.04882812 51.60546875 C25.03715142 53.40368158 25.01922011 55.20185197 25 57 C22.29648086 54.34599587 19.66491656 51.66215154 17.1328125 48.84375 C16.63910156 48.29589844 16.14539063 47.74804688 15.63671875 47.18359375 C14.63238597 46.06507326 13.6323408 44.94268736 12.63671875 43.81640625 C4.65555454 35.00603017 -3.38453504 31.21430878 -15.26391602 30.58886719 C-16.69348549 30.5304191 -18.12386601 30.48891809 -19.55444336 30.46582031 C-24.60277255 30.31576643 -24.60277255 30.31576643 -26.84765625 28.53125 C-27.22792969 28.0259375 -27.60820312 27.520625 -28 27 C-28.66 26.67 -29.32 26.34 -30 26 C-29.85860519 23.74971671 -29.71171997 21.49977794 -29.5625 19.25 C-29.48128906 17.99703125 -29.40007812 16.7440625 -29.31640625 15.453125 C-29.07484478 12.81682447 -28.75716066 10.51962706 -28 8 C-26.865625 7.97421875 -25.73125 7.9484375 -24.5625 7.921875 C-10.99171581 7.52879765 -10.99171581 7.52879765 0 0 Z " fill="#0E1010" transform="translate(200,226)"/>
<path d="M0 0 C1 3 1 3 1 6 C2.15757812 6.13535156 3.31515625 6.27070313 4.5078125 6.41015625 C18.41532397 8.28211671 18.41532397 8.28211671 22.0625 12.5 C23.79064441 15.01768003 24 15.84205133 24 19 C22.58227539 20.27099609 22.58227539 20.27099609 20.59765625 21.5234375 C19.87682861 21.98500244 19.15600098 22.44656738 18.41333008 22.92211914 C17.24966919 23.64129517 17.24966919 23.64129517 16.0625 24.375 C15.27705811 24.86669678 14.49161621 25.35839355 13.68237305 25.86499023 C12.13584015 26.82870653 10.58619513 27.7874499 9.03320312 28.74072266 C7.45613184 29.71749183 5.9025234 30.73219223 4.359375 31.76171875 C-1.83286034 35.69686067 -8.71666792 36.89041283 -16 37 C-18.49776457 36.32110178 -20.73327617 35.42610459 -23.109375 34.4140625 C-23.73328125 34.27742188 -24.3571875 34.14078125 -25 34 C-28.33738982 36.08671231 -28.33738982 36.08671231 -31 39 C-35.49705419 41.47627846 -39.82603903 41.23367392 -44.8125 41.125 C-45.99489258 41.11146484 -45.99489258 41.11146484 -47.20117188 41.09765625 C-49.13424666 41.07422504 -51.0671638 41.03835838 -53 41 C-53 39.68 -53 38.36 -53 37 C-51.98421875 36.70867187 -50.9684375 36.41734375 -49.921875 36.1171875 C-33.80432051 31.37314517 -20.9481484 24.71339059 -9.375 12.25 C-8 11 -8 11 -6 11 C-5.7525 10.29875 -5.505 9.5975 -5.25 8.875 C-3.83911974 5.62997541 -2.02104602 2.89683263 0 0 Z " fill="#1969A9" transform="translate(225,193)"/>
<path d="M0 0 C0.43458743 3.10419592 0.58981908 5.9097513 0 9 C-2.00681527 11.51246951 -4.3694844 13.18482521 -7 15 C-7.66 15.66 -8.32 16.32 -9 17 C-8.21658881 18.98244892 -7.42302514 20.96088859 -6.625 22.9375 C-6.18414062 24.03964844 -5.74328125 25.14179688 -5.2890625 26.27734375 C-4.28958568 29.11230186 -4.28958568 29.11230186 -2 30 C10.88286962 31.90216867 20.82318675 25.61471246 30.75 18.25 C33.82008284 15.90228959 35.85030722 14.22453917 38 11 C37.0925 10.731875 36.185 10.46375 35.25 10.1875 C30.16216216 8.32848233 30.16216216 8.32848233 28 6 C27.93470819 4.00106604 27.92977306 1.99876666 28 0 C30.39855098 0.42540338 32.79309741 0.8648024 35.1875 1.3125 C36.19780273 1.48942383 36.19780273 1.48942383 37.22851562 1.66992188 C41.38162326 2.46002528 44.52363313 3.59016898 48 6 C47.66461925 14.04913794 43.86064826 18.23124407 38.203125 23.70703125 C28.16951199 32.82735833 16.56658097 40.44563625 2.59375 40.28125 C-3.76177509 39.59209668 -9.75689071 35.68915043 -14 31 C-18.3362966 25.21150103 -21.6332936 19.42279015 -21 12 C-18.81843738 6.54609346 -14.66710335 3.84870716 -9.5625 1.25 C-6.08378556 0.02939844 -3.64596476 -0.26677791 0 0 Z " fill="#1C6CAC" transform="translate(127,248)"/>
<path d="M0 0 C0.66 0.33 1.32 0.66 2 1 C-0.44838756 5.17092571 -2.84052345 8.92434619 -6.25 12.375 C-9.47062289 15.94533699 -9.42784809 18.86077971 -9.58984375 23.5234375 C-10.0842282 26.50857788 -11.10740071 27.78533099 -13.0625 30.0625 C-16.23880746 33.78592262 -16.58103279 36.40175412 -16.30859375 41.21484375 C-16.1733534 43.01875459 -16.1733534 43.01875459 -15 44 C-14.91286169 45.70772358 -14.89299993 47.41898649 -14.90234375 49.12890625 C-14.90556641 50.16337891 -14.90878906 51.19785156 -14.91210938 52.26367188 C-14.92048828 53.35228516 -14.92886719 54.44089844 -14.9375 55.5625 C-14.94201172 56.65498047 -14.94652344 57.74746094 -14.95117188 58.87304688 C-14.9630016 61.58205432 -14.98093769 64.2910338 -15 67 C-9.72 67 -4.44 67 1 67 C1.12375 68.381875 1.2475 69.76375 1.375 71.1875 C1.66999373 73.93649955 1.97543868 75.94220865 3.0625 78.5 C5.56374857 85.1699962 3.74821686 91.84422113 2.125 98.5 C1.86468994 99.57858276 1.86468994 99.57858276 1.59912109 100.67895508 C1.13434969 102.47173675 0.57433751 104.23925726 0 106 C-0.99 106.495 -0.99 106.495 -2 107 C-2.29390625 106.10474609 -2.29390625 106.10474609 -2.59375 105.19140625 C-6.0638441 95.1251419 -10.57455367 85.36390149 -15.62109375 75.98828125 C-18.550897 69.63899093 -19.28292129 63.24702014 -19.875 56.375 C-21.21358261 43.1175686 -24.4550571 29.59498302 -32.68359375 18.7890625 C-34 17 -34 17 -34 15 C-32.83597656 14.92265625 -32.83597656 14.92265625 -31.6484375 14.84375 C-19.15467081 13.53175541 -9.84629733 7.50194082 0 0 Z " fill="#FCFBFA" transform="translate(244,214)"/>
<path d="M0 0 C1.80478967 1.22946371 3.20107579 2.47631308 4.6640625 4.09375 C5.4684375 4.980625 6.2728125 5.8675 7.1015625 6.78125 C9.25871586 11.35441513 9.55352541 15.12502618 8.6640625 20.09375 C6.23432054 25.90919797 2.34088335 30.25533958 -3.3359375 33.09375 C-9.12643194 33.58162315 -14.49263231 33.8698785 -19.8984375 31.59375 C-24.63433048 26.73642386 -26.55786756 22.28146345 -26.8359375 15.46875 C-26.65438046 10.60705588 -25.54714053 7.85544498 -22.3359375 4.09375 C-21.8203125 3.330625 -21.3046875 2.5675 -20.7734375 1.78125 C-16.64881951 -3.06069286 -5.42644329 -2.10524221 0 0 Z " fill="#C92D4C" transform="translate(183.3359375,367.90625)"/>
<path d="M0 0 C0 0.66 0 1.32 0 2 C-4.3656939 4.16598375 -8.37326176 4.26188911 -13.14453125 4.1953125 C-13.91431808 4.1924826 -14.68410492 4.18965271 -15.47721863 4.18673706 C-17.92247425 4.17559157 -20.36735612 4.15049781 -22.8125 4.125 C-24.47590615 4.1149629 -26.13931807 4.10583833 -27.80273438 4.09765625 C-31.86863237 4.07567073 -35.93425294 4.04118014 -40 4 C-37.53662662 8.43398142 -35.83461242 10.19141012 -31 12 C-19.0452522 13.34599461 -7.19361168 11.10432428 4 7 C4.33 4.69 4.66 2.38 5 0 C6.32 0.33 7.64 0.66 9 1 C9.89463221 9.23392975 9.89463221 9.23392975 7.9453125 13.08203125 C4.38998633 17.4925575 0.21891198 19.95155131 -5 22 C-6.03125 22.4125 -7.0625 22.825 -8.125 23.25 C-17.56940801 25.07794994 -27.66280977 25.37021862 -36 20 C-39.19614785 17.03800218 -42.04217514 13.91564973 -44 10 C-44.125 6.4375 -44.125 6.4375 -44 3 C-42.20895954 1.20895954 -39.51678438 1.78484554 -37.09375 1.71875 C-35.87429687 1.68136719 -34.65484375 1.64398438 -33.3984375 1.60546875 C-32.11195312 1.57066406 -30.82546875 1.53585938 -29.5 1.5 C-19.70093023 1.22836254 -9.76304414 -0.25033447 0 0 Z " fill="#A0352C" transform="translate(150,166)"/>
<path d="M0 0 C0.99 0.495 0.99 0.495 2 1 C2.66 2.98 3.32 4.96 4 7 C9.61 7.33 15.22 7.66 21 8 C21.33 5.36 21.66 2.72 22 0 C22.33 0 22.66 0 23 0 C23.90041311 8.02332397 24.11547323 15.92970447 24 24 C25.918125 23.9690625 25.918125 23.9690625 27.875 23.9375 C32.97179862 23.92939698 37.93741658 24.42956806 43 25 C43 20.38 43 15.76 43 11 C37.39 11 31.78 11 26 11 C25.67 10.34 25.34 9.68 25 9 C30.94 9 36.88 9 43 9 C43 6.69 43 4.38 43 2 C43.66 1.34 44.32 0.68 45 0 C45.02886537 4.31248609 45.04675255 8.62494762 45.0625 12.9375 C45.07087891 14.16919922 45.07925781 15.40089844 45.08789062 16.66992188 C45.09111328 17.83974609 45.09433594 19.00957031 45.09765625 20.21484375 C45.10289307 21.29886475 45.10812988 22.38288574 45.11352539 23.49975586 C45 26 45 26 44 27 C42.65455673 27.09785341 41.30407437 27.12797985 39.95507812 27.12939453 C39.09748901 27.13254669 38.2398999 27.13569885 37.35632324 27.13894653 C36.42404907 27.1369223 35.4917749 27.13489807 34.53125 27.1328125 C33.10528503 27.13424759 33.10528503 27.13424759 31.6505127 27.13571167 C29.63631118 27.13639357 27.62210748 27.13453862 25.60791016 27.13037109 C22.51329645 27.12502298 19.4188279 27.13031577 16.32421875 27.13671875 C14.37239551 27.13605797 12.42057236 27.13477681 10.46875 27.1328125 C9.07033875 27.13584885 9.07033875 27.13584885 7.64367676 27.13894653 C6.78608765 27.13579437 5.92849854 27.13264221 5.04492188 27.12939453 C4.28626831 27.12859894 3.52761475 27.12780334 2.74597168 27.12698364 C1 27 1 27 0 26 C-0.08748207 24.07332493 -0.10697334 22.14348139 -0.09765625 20.21484375 C-0.09443359 19.04501953 -0.09121094 17.87519531 -0.08789062 16.66992188 C-0.07951172 15.43822266 -0.07113281 14.20652344 -0.0625 12.9375 C-0.05798828 11.70193359 -0.05347656 10.46636719 -0.04882812 9.19335938 C-0.03699608 6.12885883 -0.02051173 3.06445279 0 0 Z " fill="#D5B28E" transform="translate(81,506)"/>
<path d="M0 0 C0.33 0 0.66 0 1 0 C1 1.65 1 3.3 1 5 C0.15695313 5.04898438 -0.68609375 5.09796875 -1.5546875 5.1484375 C-2.65039062 5.22320313 -3.74609375 5.29796875 -4.875 5.375 C-6.51082031 5.47941406 -6.51082031 5.47941406 -8.1796875 5.5859375 C-11.13046474 5.73253491 -11.13046474 5.73253491 -13 8 C81.05 8.495 81.05 8.495 177 9 C176.67 9.99 176.34 10.98 176 12 C156.29826345 12.17486748 156.29826345 12.17486748 146.6875 11.5 C137.88027905 10.90614996 129.07297855 10.8858504 120.25 10.875 C119.54024017 10.87250244 118.83048035 10.87000488 118.09921265 10.86743164 C116.05046796 10.86150038 114.00187163 10.86304878 111.953125 10.8671875 C110.75848633 10.86831543 109.56384766 10.86944336 108.33300781 10.87060547 C105.05964029 10.92637979 105.05964029 10.92637979 102.10766602 11.48852539 C98.1688358 12.136797 94.30960634 12.23167537 90.32421875 12.31640625 C89.07259445 12.34771385 89.07259445 12.34771385 87.79568481 12.37965393 C85.09304595 12.44551277 82.39031898 12.50453789 79.6875 12.5625 C78.76738129 12.58334656 77.84726257 12.60419312 76.89926147 12.62567139 C37.47271911 13.51662301 37.47271911 13.51662301 22.30078125 12.15625 C15.85268142 11.85101451 9.4240614 12.4577091 3 13 C3 13.66 3 14.32 3 15 C-3.6 15 -10.2 15 -17 15 C-14 6 -14 6 -11.8125 4 C-9.32632191 3.11602557 -7.34489085 2.72994745 -4.75 2.4375 C-3.5125 2.293125 -2.275 2.14875 -1 2 C-0.67 1.34 -0.34 0.68 0 0 Z " fill="#FEFEFE" transform="translate(50,534)"/>
<path d="M0 0 C0.33 0 0.66 0 1 0 C1 8.91 1 17.82 1 27 C-7.25 27 -15.5 27 -24 27 C-24 18.42 -24 9.84 -24 1 C-22.02 1.99 -22.02 1.99 -20 3 C-17.27120369 3.16614962 -14.66086024 3.23407412 -11.9375 3.1875 C-10.85758789 3.1865332 -10.85758789 3.1865332 -9.75585938 3.18554688 C-6.58250863 3.15902862 -4.02950606 3.00983535 -1 2 C-0.67 1.34 -0.34 0.68 0 0 Z " fill="#E6D0AF" transform="translate(118,408)"/>
<path d="M0 0 C1.04811356 -0.01283524 2.09622711 -0.02567047 3.17610168 -0.03889465 C4.88850288 -0.04997505 4.88850288 -0.04997505 6.63549805 -0.0612793 C7.80098679 -0.06935104 8.96647552 -0.07742279 10.1672821 -0.08573914 C12.63966373 -0.09959994 15.11206465 -0.11031311 17.58447266 -0.11816406 C21.3707294 -0.13537763 25.15611357 -0.17924756 28.94213867 -0.22338867 C31.33991869 -0.23351485 33.73770615 -0.24203118 36.13549805 -0.2487793 C37.27102615 -0.26628738 38.40655426 -0.28379547 39.57649231 -0.30183411 C41.16284737 -0.29744576 41.16284737 -0.29744576 42.78125 -0.29296875 C44.17571098 -0.30176811 44.17571098 -0.30176811 45.5983429 -0.31074524 C48.88104092 0.33321533 50.07589227 1.54548324 52.0847168 4.17700195 C52.2722168 7.86450195 52.2722168 7.86450195 52.0847168 11.17700195 C52.5797168 11.67200195 52.5797168 11.67200195 53.0847168 12.17700195 C53.32692898 16.41571513 53.31323311 20.66016177 53.32495117 24.9050293 C53.33464606 27.03644999 53.36565086 29.16690204 53.3972168 31.2980957 C53.4037478 32.65095455 53.40899789 34.0038203 53.4128418 35.35668945 C53.42686035 37.20883057 53.42686035 37.20883057 53.44116211 39.09838867 C53.0847168 42.17700195 53.0847168 42.17700195 52.04882812 44.08276367 C48.94612207 45.81133154 45.78685392 45.56299554 42.33081055 45.50512695 C41.55649185 45.50325378 40.78217316 45.50138062 39.98439026 45.49945068 C38.33590421 45.49272036 36.68743439 45.47878642 35.0390625 45.45825195 C32.5834168 45.42776183 30.12842163 45.41733948 27.67260742 45.41137695 C16.785486 45.35704219 5.94811845 44.87791916 -4.9152832 44.17700195 C-6.62904932 40.74946971 -6.05673681 36.81903452 -6.0480957 33.0480957 C-6.04905243 32.14325943 -6.05000916 31.23842316 -6.05099487 30.3061676 C-6.05167593 28.39209931 -6.04982682 26.47802871 -6.0456543 24.56396484 C-6.04029882 21.62307591 -6.04560498 18.68233928 -6.05200195 15.74145508 C-6.05134128 13.88533495 -6.05006034 12.02921491 -6.0480957 10.1730957 C-6.05011993 9.28770615 -6.05214417 8.40231659 -6.05422974 7.49009705 C-6.02548385 0.06396966 -6.02548385 0.06396966 0 0 Z M-2.9152832 3.17700195 C-2.9359082 9.42637695 -2.9565332 15.67575195 -2.9777832 22.11450195 C-2.98688721 24.08926514 -2.99599121 26.06402832 -3.00537109 28.09863281 C-3.00829025 29.65470308 -3.01083881 31.21077411 -3.01293945 32.7668457 C-3.01805542 33.58221802 -3.02317139 34.39759033 -3.02844238 35.2376709 C-3.0287526 37.21780719 -2.97766417 39.19784849 -2.9152832 41.17700195 C-1.29076544 42.80151971 0.51311784 42.31254878 2.75634766 42.32226562 C3.75085434 42.32864548 4.74536102 42.33502533 5.77000427 42.34159851 C6.85225784 42.34271133 7.93451141 42.34382416 9.04956055 42.3449707 C10.70502647 42.3499633 10.70502647 42.3499633 12.39393616 42.35505676 C14.73348574 42.36013081 17.07304258 42.36246494 19.41259766 42.36230469 C23.00329445 42.36449043 26.59368384 42.38263929 30.18432617 42.40161133 C32.45190324 42.40454522 34.71948178 42.40653004 36.98706055 42.4074707 C38.06728989 42.41465622 39.14751923 42.42184174 40.26048279 42.429245 C41.25814163 42.42616837 42.25580048 42.42309174 43.28369141 42.41992188 C44.16447861 42.42134689 45.04526581 42.42277191 45.95274353 42.42424011 C48.30004384 42.37563789 48.30004384 42.37563789 50.0847168 40.17700195 C50.50845622 35.99123981 50.45630681 31.7987544 50.45532227 27.59326172 C50.4596652 25.51420298 50.49588533 23.4373211 50.53393555 21.35864258 C50.53981011 20.02336333 50.54377522 18.68807405 50.5456543 17.3527832 C50.55387207 16.14533447 50.56208984 14.93788574 50.57055664 13.69384766 C50.19440358 9.35967972 50.19440358 9.35967972 46.0847168 3.17700195 C29.9147168 3.17700195 13.7447168 3.17700195 -2.9152832 3.17700195 Z " fill="#D7B895" transform="translate(154.915283203125,497.822998046875)"/>
<path d="M0 0 C13.52764877 3.27281825 30.95520191 10.93280286 39 23 C39.22705078 24.99291992 39.22705078 24.99291992 39.1953125 27.23046875 C39.18886719 28.03291016 39.18242188 28.83535156 39.17578125 29.66210938 C39.15902344 30.49548828 39.14226562 31.32886719 39.125 32.1875 C39.11597656 33.03248047 39.10695312 33.87746094 39.09765625 34.74804688 C39.07410703 36.83215243 39.03823647 38.91611217 39 41 C32.375 41.25 32.375 41.25 29 39 C29.66 35.7 30.32 32.4 31 29 C26.19908082 24.29705876 21.31529824 20.80744627 15.4375 17.625 C14.81286865 17.27953125 14.1882373 16.9340625 13.54467773 16.578125 C8.45866776 13.90935419 3.77936686 13 -2 13 C-1.85966889 11.02043559 -1.7125877 9.04134859 -1.5625 7.0625 C-1.48128906 5.96035156 -1.40007813 4.85820312 -1.31640625 3.72265625 C-1 1 -1 1 0 0 Z " fill="#1A6BAC" transform="translate(40,342)"/>
<path d="M0 0 C1.52463867 -0.01933594 1.52463867 -0.01933594 3.08007812 -0.0390625 C4.02818359 -0.04035156 4.97628906 -0.04164063 5.953125 -0.04296875 C6.78489258 -0.04707764 7.61666016 -0.05118652 8.47363281 -0.05541992 C11.09959743 0.22480689 12.59211765 0.65279422 14.75 2.1875 C17.83345562 7.68550376 17.08525482 13.98654997 17.06567383 20.10742188 C17.06250912 22.18152204 17.08601838 24.25420033 17.11132812 26.328125 C17.11197266 27.64296875 17.11261719 28.9578125 17.11328125 30.3125 C17.11626221 31.51132812 17.11924316 32.71015625 17.12231445 33.9453125 C16.47569394 39.57621116 16.47569394 39.57621116 13.75 42.1875 C9.93538561 42.90080504 6.16885981 42.76652137 2.30078125 42.67578125 C0.60915108 42.66516914 0.60915108 42.66516914 -1.11665344 42.65434265 C-4.72427259 42.62631852 -8.33034871 42.56356108 -11.9375 42.5 C-14.38083699 42.47492769 -16.82419826 42.45211267 -19.26757812 42.43164062 C-25.26279367 42.38071287 -31.25466678 42.28286585 -37.25 42.1875 C-37.25 28.6575 -37.25 15.1275 -37.25 1.1875 C-24.83093892 0.59611614 -12.43362674 0.07651463 0 0 Z M-36.25 3.1875 C-36.25 14.7375 -36.25 26.2875 -36.25 38.1875 C-29.57474596 38.21040404 -22.8996272 38.23033264 -16.22436523 38.24243164 C-13.95157409 38.24747325 -11.6787862 38.25430637 -9.40600586 38.26293945 C-6.14696449 38.27501261 -2.88796583 38.28072987 0.37109375 38.28515625 C1.39400009 38.29031754 2.41690643 38.29547882 3.47080994 38.30079651 C4.41170975 38.30087204 5.35260956 38.30094757 6.32202148 38.30102539 C7.15475082 38.303246 7.98748016 38.30546661 8.84544373 38.30775452 C10.76033274 38.39754832 10.76033274 38.39754832 11.75 37.1875 C11.99258033 34.39033919 12.17697819 31.61533741 12.3125 28.8125 C12.3527832 27.99700684 12.39306641 27.18151367 12.43457031 26.34130859 C12.5469191 23.9569652 12.6492532 21.57235747 12.75 19.1875 C12.80542969 18.0325 12.86085937 16.8775 12.91796875 15.6875 C12.95857422 14.264375 12.95857422 14.264375 13 12.8125 C13.03867188 11.59433594 13.03867188 11.59433594 13.078125 10.3515625 C12.65174108 7.53945906 11.6493265 6.28479579 9.75 4.1875 C1.39558039 1.40902426 -10.12762571 3.08047107 -18.875 3.125 C-27.475625 3.1559375 -27.475625 3.1559375 -36.25 3.1875 Z " fill="#D4B28F" transform="translate(115.25,497.8125)"/>
<path d="M0 0 C6.625 -0.125 6.625 -0.125 10 1 C12.56634861 1.22718496 15.11678107 1.41608184 17.6875 1.5625 C18.38939453 1.60568359 19.09128906 1.64886719 19.81445312 1.69335938 C21.54275206 1.7991736 23.2713511 1.90006581 25 2 C25 1.34 25 0.68 25 0 C25.99 0 26.98 0 28 0 C28 0.66 28 1.32 28 2 C28.99 2 29.98 2 31 2 C31 3.32 31 4.64 31 6 C31.66 6 32.32 6 33 6 C33 4.68 33 3.36 33 2 C33.66 2 34.32 2 35 2 C35.25 7.625 35.25 7.625 33 11 C36.63 11 40.26 11 44 11 C43.67 12.32 43.34 13.64 43 15 C43 14.01 43 13.02 43 12 C42.34 12 41.68 12 41 12 C41 13.32 41 14.64 41 16 C35.84860343 16.85068934 30.90425358 17.15400882 25.6875 17.125 C24.97271484 17.12886719 24.25792969 17.13273437 23.52148438 17.13671875 C18.25357734 17.12678867 18.25357734 17.12678867 16 16 C13.81297333 15.95449619 11.6246627 15.9615866 9.4375 16 C7.2919961 16.03759919 5.14532508 16.04670095 3 16 C2 15 2 15 1.9375 12.625 C1.958125 11.75875 1.97875 10.8925 2 10 C2 6.38970831 1.03907418 3.44193324 0 0 Z " fill="#809FAF" transform="translate(149,411)"/>
<path d="M0 0 C0.77456968 7.90061077 0.77456968 7.90061077 -1.9375 11.75 C-5.10117713 14.07433422 -8.32182821 15.90398168 -11.77734375 17.75 C-15.75766017 19.98849078 -19.28124325 22.15818584 -21 26.5625 C-21 29.32650817 -20.31137974 30.60866047 -19 33 C-19 34.32 -19 35.64 -19 37 C-22.72733956 37.34702817 -26.28337909 37.51337497 -30 37 C-32.99177789 34.07779834 -33.83726383 32.26380218 -34.3671875 28.1484375 C-33.62190501 21.75803654 -27.68261589 17.09275148 -23 13 C-6.28632903 0 -6.28632903 0 0 0 Z " fill="#1C6CAC" transform="translate(239,343)"/>
<path d="M0 0 C0.98871094 -0.01417969 1.97742188 -0.02835938 2.99609375 -0.04296875 C5.5625 0.1875 5.5625 0.1875 7.5625 2.1875 C8.14601721 8.72289273 6.68210334 14.03055695 4.5625 20.1875 C3.9025 20.1875 3.2425 20.1875 2.5625 20.1875 C2.5625 21.1775 2.5625 22.1675 2.5625 23.1875 C-2.85140868 22.72078373 -6.64267932 21.94452189 -11.4375 19.1875 C-12.1281352 11.69794491 -11.15283777 7.10872742 -6.4375 1.1875 C-4.69900372 -0.55099628 -2.3588363 0.01533704 0 0 Z " fill="#AD6A5B" transform="translate(267.4375,194.8125)"/>
<path d="M0 0 C0 1.98 0 3.96 0 6 C-11.33590016 11.16636158 -23.53320935 13.40364592 -36 12 C-39.51031559 10.48191328 -42.66640388 9.11146149 -45 6 C-45 5.01 -45 4.02 -45 3 C-43.96593018 2.98018066 -42.93186035 2.96036133 -41.86645508 2.93994141 C-38.01774381 2.86367773 -34.1694004 2.77499286 -30.32104492 2.68261719 C-28.65770752 2.64441304 -26.99428992 2.60954537 -25.33081055 2.578125 C-22.9350932 2.53228766 -20.53992391 2.47432533 -18.14453125 2.4140625 C-17.4047554 2.40251129 -16.66497955 2.39096008 -15.90278625 2.37905884 C-10.23184494 2.21816777 -5.59799059 -0.31988518 0 0 Z " fill="#F6EEED" transform="translate(155,167)"/>
<path d="M0 0 C2.86223686 0.59423603 5.05615486 1.6747723 7.18359375 3.703125 C8.99322212 6.677496 8.94145383 9.74741396 8.95703125 13.1640625 C9.32228707 15.9627759 10.227708 16.61777236 12.2578125 18.46875 C11.9453125 20.65625 11.9453125 20.65625 11.2578125 22.46875 C7.88318535 21.92151317 6.1754625 21.41385 3.2578125 19.46875 C0.8789089 19.19778355 0.8789089 19.19778355 -1.6796875 19.15625 C-5.27861045 18.84101587 -6.45043287 18.69798578 -9.3671875 16.40625 C-11.15952241 12.57717087 -11.53719944 9.61954918 -10.7421875 5.46875 C-8.27825032 0.32662023 -5.35889733 -0.3537226 0 0 Z " fill="#F8E7EA" transform="translate(173.7421875,372.53125)"/>
<path d="M0 0 C2 3 2 3 3 10 C10.26 9.67 17.52 9.34 25 9 C25.66 6.03 26.32 3.06 27 0 C29.42451872 3.63677809 29.32284992 6.38141597 29.3359375 10.58984375 C29.3425943 11.33077774 29.3492511 12.07171173 29.35610962 12.83509827 C29.36622694 14.40102661 29.37092692 15.96699799 29.37060547 17.53295898 C29.37497842 19.92569149 29.41130267 22.31657827 29.44921875 24.70898438 C29.45508727 26.23176454 29.45905643 27.75455344 29.4609375 29.27734375 C29.47530853 29.99099594 29.48967957 30.70464813 29.50448608 31.43992615 C29.47361203 34.80527392 29.21981771 36.69550885 27.22851562 39.45385742 C24.82389257 41.12218321 23.76502568 41.49501885 20.8828125 41.4609375 C20.11066406 41.45707031 19.33851562 41.45320313 18.54296875 41.44921875 C17.34607422 41.41248047 17.34607422 41.41248047 16.125 41.375 C15.33480469 41.37371094 14.54460937 41.37242187 13.73046875 41.37109375 C9.15311022 41.30254762 5.25091965 40.87893314 1 39 C-0.61301773 35.77396455 -0.12053599 32.25289962 -0.09765625 28.7109375 C-0.0962413 27.89251373 -0.09482635 27.07408997 -0.09336853 26.23086548 C-0.0877629 23.61220675 -0.07520948 20.99363296 -0.0625 18.375 C-0.05748572 16.60156373 -0.05292269 14.82812613 -0.04882812 13.0546875 C-0.03779164 8.70309218 -0.02052325 4.3515605 0 0 Z M26 10 C25.67 10.66 25.34 11.32 25 12 C21.3185193 13.22716023 17.89589238 13.18406814 14.0625 13.1875 C12.98838867 13.20586914 12.98838867 13.20586914 11.89257812 13.22460938 C7.77939453 13.23604547 5.77718433 12.88859216 2 11 C2 19.58 2 28.16 2 37 C10.25 37 18.5 37 27 37 C27 28.09 27 19.18 27 10 C26.67 10 26.34 10 26 10 Z " fill="#D8BB98" transform="translate(92,398)"/>
<path d="M0 0 C5.42140203 0.4947552 9.58809426 1.92485529 14.375 4.5625 C15.34856445 5.09387573 15.34856445 5.09387573 16.34179688 5.63598633 C27.52425514 11.93794135 27.52425514 11.93794135 31 17 C30.7171074 20.41528518 29.65566991 23.01979416 28 26 C24.05360944 24.36276843 21.19894068 21.62505112 18.0625 18.8125 C11.85757853 13.37838734 5.42955079 9.56277967 -2 6 C-1.34 4.02 -0.68 2.04 0 0 Z " fill="#9F594C" transform="translate(41,354)"/>
<path d="M0 0 C3.70963707 -0.28781667 7.29923389 -0.44259883 11 0 C14.22129818 2.91450788 15.87805734 5.53468896 16.23828125 9.86328125 C16.26277344 11.00152344 16.28726563 12.13976562 16.3125 13.3125 C16.34988281 14.44300781 16.38726562 15.57351562 16.42578125 16.73828125 C15.92085048 20.60632889 14.65195786 22.2120443 12 25 C9.25 24.9375 9.25 24.9375 6 24 C1.60549831 18.7741061 1.45051213 13.66816638 1.17578125 6.98828125 C1.02870541 4.48799194 0.71417385 2.38638578 0 0 Z " fill="#1B0F0F" transform="translate(145,104)"/>
<path d="M0 0 C6.6 0.33 13.2 0.66 20 1 C20.09765625 11.83984375 20.09765625 11.83984375 20 15 C18.4779041 16.5220959 17.11789918 16.12959521 15 16.1328125 C14.195625 16.13410156 13.39125 16.13539063 12.5625 16.13671875 C11.716875 16.13285156 10.87125 16.12898437 10 16.125 C9.154375 16.12886719 8.30875 16.13273438 7.4375 16.13671875 C6.633125 16.13542969 5.82875 16.13414062 5 16.1328125 C4.2575 16.13168457 3.515 16.13055664 2.75 16.12939453 C1 16 1 16 0 15 C-0.07320163 12.4672235 -0.09227569 9.96896082 -0.0625 7.4375 C-0.041875 4.983125 -0.02125 2.52875 0 0 Z " fill="#E6D0AF" transform="translate(83,515)"/>
<path d="M0 0 C0.75087891 0.09345703 1.50175781 0.18691406 2.27539062 0.28320312 C3.04431641 0.38697266 3.81324219 0.49074219 4.60546875 0.59765625 C5.78786133 0.74750977 5.78786133 0.74750977 6.99414062 0.90039062 C8.92800378 1.14651866 10.86062531 1.40236843 12.79296875 1.66015625 C12.79296875 1.99015625 12.79296875 2.32015625 12.79296875 2.66015625 C8.50296875 2.66015625 4.21296875 2.66015625 -0.20703125 2.66015625 C-0.53703125 4.97015625 -0.86703125 7.28015625 -1.20703125 9.66015625 C-5.71850946 11.8935613 -9.71917965 12.02659786 -14.64453125 12.03515625 C-15.38251953 12.05964844 -16.12050781 12.08414063 -16.88085938 12.109375 C-22.02734714 12.13682293 -25.3300562 11.35895019 -29.20703125 7.66015625 C-29.58203125 4.41015625 -29.58203125 4.41015625 -29.20703125 1.66015625 C-28.62735596 1.6351001 -28.04768066 1.61004395 -27.45043945 1.58422852 C-24.80661018 1.46769391 -22.16308716 1.34522943 -19.51953125 1.22265625 C-18.60751953 1.18333984 -17.69550781 1.14402344 -16.75585938 1.10351562 C-15.86962891 1.06162109 -14.98339844 1.01972656 -14.0703125 0.9765625 C-12.85275269 0.92157593 -12.85275269 0.92157593 -11.6105957 0.86547852 C-9.16884585 0.70702793 -9.16884585 0.70702793 -6.66601562 0.11914062 C-4.23615201 -0.33440818 -2.43665041 -0.31620654 0 0 Z " fill="#955144" transform="translate(156.20703125,228.33984375)"/>
<path d="M0 0 C9.14166085 -0.62805304 9.14166085 -0.62805304 12.5625 1.875 C15.04476556 5.54443605 15.18969507 7.87506258 15.25 12.3125 C15.28867188 14.00826172 15.28867188 14.00826172 15.328125 15.73828125 C14.96758739 19.32219682 14.19337536 21.16883464 12 24 C9.3125 24.8125 9.3125 24.8125 7 25 C0.4913288 18.4913288 0.70421204 8.70999099 0 0 Z " fill="#190D0E" transform="translate(94,110)"/>
<path d="M0 0 C0.66 0.66 1.32 1.32 2 2 C1.59129933 5.72300766 0.31961878 9.074243 -1 12.5625 C-3.22815662 18.4687534 -4.21309099 23.19200328 -4.375 29.5625 C-4.41238281 30.23474609 -4.44976562 30.90699219 -4.48828125 31.59960938 C-4.58319207 33.82108351 -4.58319207 33.82108351 -4 37 C-1.74262254 38.99731467 -1.74262254 38.99731467 1 40 C1.928125 40.391875 2.85625 40.78375 3.8125 41.1875 C4.534375 41.455625 5.25625 41.72375 6 42 C5.67 42.66 5.34 43.32 5 44 C2.73078464 44.13489391 0.4592933 44.23193995 -1.8125 44.3125 C-3.70935547 44.39951172 -3.70935547 44.39951172 -5.64453125 44.48828125 C-9 44 -9 44 -10.92578125 41.6953125 C-14.84485482 31.86200063 -10.06145222 18.44836664 -6.1171875 9.19921875 C-4.40825417 5.83512971 -2.32365466 2.96911428 0 0 Z " fill="#A45949" transform="translate(125,117)"/>
<path d="M0 0 C0.06181077 4.38856448 0.09198389 8.40470278 -2.44921875 12.1171875 C-5.65987312 15.36266458 -9.0366075 17.73520429 -13 20 C-13.66 20.99 -14.32 21.98 -15 23 C-15.66 23 -16.32 23 -17 23 C-20.05706522 17.74184783 -20.05706522 17.74184783 -19.80859375 14.51171875 C-17.66147048 7.84215226 -9.71064505 4.00524497 -3.8828125 0.84765625 C-2 0 -2 0 0 0 Z " fill="#9D594D" transform="translate(237,355)"/>
<path d="M0 0 C0.96228516 -0.00128906 1.92457031 -0.00257813 2.91601562 -0.00390625 C3.92986328 -0.00003906 4.94371094 0.00382812 5.98828125 0.0078125 C6.98279297 0.00394531 7.97730469 0.00007813 9.00195312 -0.00390625 C13.87781051 0.00258192 18.50941126 0.10434126 23.30078125 1.1328125 C23.30078125 1.4628125 23.30078125 1.7928125 23.30078125 2.1328125 C14.06078125 2.1328125 4.82078125 2.1328125 -4.69921875 2.1328125 C-4.36921875 14.6728125 -4.03921875 27.2128125 -3.69921875 40.1328125 C13.46078125 40.1328125 30.62078125 40.1328125 48.30078125 40.1328125 C47.97078125 41.1228125 47.64078125 42.1128125 47.30078125 43.1328125 C29.48078125 43.1328125 11.66078125 43.1328125 -6.69921875 43.1328125 C-6.69921875 33.12390876 -6.65340189 23.18615549 -6.26171875 13.1953125 C-6.22240234 12.03580078 -6.18308594 10.87628906 -6.14257812 9.68164062 C-6.10068359 8.58400391 -6.05878906 7.48636719 -6.015625 6.35546875 C-5.97896729 5.37328369 -5.94230957 4.39109863 -5.90454102 3.37915039 C-5.53233976 -0.69293494 -3.63740546 0.00467147 0 0 Z " fill="#CFAB87" transform="translate(156.69921875,498.8671875)"/>
<path d="M0 0 C6.93 0 13.86 0 21 0 C21 3.3 21 6.6 21 10 C14.07 10 7.14 10 0 10 C0 6.7 0 3.4 0 0 Z " fill="#E6D0AF" transform="translate(180,506)"/>
<path d="M0 0 C2 2 2 2 2.125 5.125 C2.08375 6.07375 2.0425 7.0225 2 8 C3.2684375 7.98259766 3.2684375 7.98259766 4.5625 7.96484375 C10.81560618 7.91510313 16.82005931 8.03059754 23 9 C23 6.03 23 3.06 23 0 C23.33 0 23.66 0 24 0 C24.66 8.91 25.32 17.82 26 27 C24.68 26.67 23.36 26.34 22 26 C22 21.05 22 16.1 22 11 C15.73 11 9.46 11 3 11 C3 15.62 3 20.24 3 25 C8.94 25.66 14.88 26.32 21 27 C21 27.33 21 27.66 21 28 C14.07 28 7.14 28 0 28 C0 18.76 0 9.52 0 0 Z " fill="#D5B490" transform="translate(155,507)"/>
<path d="M0 0 C1.52463867 -0.01933594 1.52463867 -0.01933594 3.08007812 -0.0390625 C4.02818359 -0.04035156 4.97628906 -0.04164063 5.953125 -0.04296875 C6.78489258 -0.04707764 7.61666016 -0.05118652 8.47363281 -0.05541992 C11.09959743 0.22480689 12.59211765 0.65279422 14.75 2.1875 C16.99473846 6.14877713 16.98348589 9.75290746 16.9453125 14.23828125 C16.9424826 14.89708786 16.93965271 15.55589447 16.93673706 16.23466492 C16.92560924 18.32330062 16.90051948 20.41149556 16.875 22.5 C16.86496059 23.92251982 16.85583642 25.3450464 16.84765625 26.76757812 C16.82569447 30.24102681 16.79121646 33.71422033 16.75 37.1875 C16.42 37.1875 16.09 37.1875 15.75 37.1875 C15.72494385 36.45112305 15.6998877 35.71474609 15.67407227 34.95605469 C15.55795727 31.61636622 15.43530082 28.27694903 15.3125 24.9375 C15.27318359 23.77863281 15.23386719 22.61976563 15.19335938 21.42578125 C15.15146484 20.31074219 15.10957031 19.19570313 15.06640625 18.046875 C15.01141968 16.50725098 15.01141968 16.50725098 14.95532227 14.93652344 C14.70741488 11.48061995 14.70741488 11.48061995 13.75 8.1875 C12.76 7.8575 11.77 7.5275 10.75 7.1875 C10.255 6.1975 10.255 6.1975 9.75 5.1875 C0.14768375 3.72290429 -9.67877134 3.85133156 -19.375 3.625 C-21.1119877 3.58172119 -22.848967 3.53810422 -24.5859375 3.49414062 C-28.80720499 3.38802656 -33.0285598 3.28649471 -37.25 3.1875 C-37.25 2.5275 -37.25 1.8675 -37.25 1.1875 C-24.83730241 0.5622087 -12.42940059 0.07648862 0 0 Z " fill="#D7B693" transform="translate(115.25,497.8125)"/>
<path d="M0 0 C4.04431981 1.05263118 6.52778284 3.56493613 9.28125 6.59375 C9.94125 7.315625 10.60125 8.0375 11.28125 8.78125 C11.61125 9.379375 11.94125 9.9775 12.28125 10.59375 C11.95125 11.58375 11.62125 12.57375 11.28125 13.59375 C10.394375 13.26375 9.5075 12.93375 8.59375 12.59375 C2.63446873 10.88412013 -5.3413895 10.16126431 -11.11328125 12.609375 C-11.64308594 12.93421875 -12.17289063 13.2590625 -12.71875 13.59375 C-12.46809834 9.41622239 -11.83833255 6.79928251 -9.71875 3.15625 C-6.21162883 0.160584 -4.4971028 -0.29980685 0 0 Z " fill="#181312" transform="translate(153.71875,73.40625)"/>
<path d="M0 0 C4.76002972 1.26286503 7.43525994 4.74727352 10.0625 8.8125 C10.0625 9.8025 10.0625 10.7925 10.0625 11.8125 C9.216875 11.76609375 8.37125 11.7196875 7.5 11.671875 C0.161937 11.43839118 -4.7432402 11.8746179 -10.9375 15.8125 C-12.26469189 16.49131066 -13.59662535 17.1611342 -14.9375 17.8125 C-12.68483227 9.92816294 -8.33978608 2.30674934 0 0 Z " fill="#181311" transform="translate(102.9375,78.1875)"/>
<path d="M0 0 C1.625 2.5 1.625 2.5 3 5 C1.94512267 5.96671756 0.88066719 6.92298745 -0.1875 7.875 C-0.77917969 8.40867188 -1.37085938 8.94234375 -1.98046875 9.4921875 C-7.06185561 13.2860276 -11.7178935 13.25782462 -17.8125 13.125 C-18.99489258 13.11146484 -18.99489258 13.11146484 -20.20117188 13.09765625 C-22.13424666 13.07422504 -24.0671638 13.03835838 -26 13 C-26 11.68 -26 10.36 -26 9 C-24.40671875 8.52820313 -24.40671875 8.52820313 -22.78125 8.046875 C-16.23267883 6.0742553 -6.32260367 0 0 0 Z " fill="#074677" transform="translate(198,221)"/>
<path d="M0 0 C6.625 -0.125 6.625 -0.125 10 1 C12.56634861 1.22718496 15.11678107 1.41608184 17.6875 1.5625 C18.38939453 1.60568359 19.09128906 1.64886719 19.81445312 1.69335938 C21.54275206 1.7991736 23.2713511 1.90006581 25 2 C25 1.34 25 0.68 25 0 C25.99 0 26.98 0 28 0 C28 2.64 28 5.28 28 8 C27.01 7.91621094 26.02 7.83242188 25 7.74609375 C16.64684095 6.97856231 16.64684095 6.97856231 8.3125 7.5625 C5 8 5 8 2.5625 7.4375 C0.21723034 5.27985191 0.26766522 3.07815008 0 0 Z " fill="#3F6D8C" transform="translate(149,411)"/>
<path d="M0 0 C2 2 2 2 2.24291992 4.87329102 C2.23881104 6.07139404 2.23470215 7.26949707 2.23046875 8.50390625 C2.22853516 9.80134766 2.22660156 11.09878906 2.22460938 12.43554688 C2.21530396 13.45056274 2.21530396 13.45056274 2.20581055 14.48608398 C2.18754052 16.55790471 2.18530095 18.62927897 2.18554688 20.70117188 C2.14008257 30.85991743 2.14008257 30.85991743 1 32 C-0.56547048 32.09326716 -2.13512772 32.11745582 -3.70336914 32.11352539 C-4.70433121 32.11344986 -5.70529327 32.11337433 -6.73658752 32.11329651 C-7.8251152 32.10813522 -8.91364288 32.10297394 -10.03515625 32.09765625 C-11.14354355 32.0962413 -12.25193085 32.09482635 -13.39390564 32.09336853 C-16.95013069 32.08775033 -20.50629383 32.07519475 -24.0625 32.0625 C-26.46679597 32.05748734 -28.87109292 32.05292403 -31.27539062 32.04882812 C-37.18361504 32.03777499 -43.0918031 32.02101917 -49 32 C-49 31.67 -49 31.34 -49 31 C-33.49 30.34 -17.98 29.68 -2 29 C-1.34 19.43 -0.68 9.86 0 0 Z " fill="#CBA582" transform="translate(128,506)"/>
<path d="M0 0 C-0.33 1.32 -0.66 2.64 -1 4 C-1.99 4 -2.98 4 -4 4 C-4 5.32 -4 6.64 -4 8 C-6.86633795 9.43316898 -9.37235501 9.13200361 -12.5625 9.125 C-14.32787109 9.12886719 -14.32787109 9.12886719 -16.12890625 9.1328125 C-19 9 -19 9 -20 8 C-20.04063832 6.33382885 -20.042721 4.66611905 -20 3 C-19.01 2.67 -18.02 2.34 -17 2 C-17 1.34 -17 0.68 -17 0 C-11.06975197 -0.97040422 -5.93609666 -0.89316269 0 0 Z " fill="#B2B6AD" transform="translate(171,418)"/>
<path d="M0 0 C2.56002346 2.218687 2.94923191 3.65187593 3.4375 7 C3 10 3 10 1.4375 12.4375 C-1 14 -1 14 -4.625 13.875 C-8 13 -8 13 -10 11 C-10.43244601 7.10798594 -10.57846465 4.86769698 -8.375 1.5625 C-5.30138841 -0.45961289 -3.61074844 -0.61459548 0 0 Z " fill="#C92E4E" transform="translate(176,375)"/>
<path d="M0 0 C-2.69400198 1.79600132 -4.28165079 2.48220013 -7.3125 3.3125 C-18.56430955 6.54101366 -18.56430955 6.54101366 -29.2734375 11.17578125 C-31 12 -31 12 -33.25 11.625 C-33.8275 11.41875 -34.405 11.2125 -35 11 C-34.03077596 8.56932819 -33.39919354 7.25065641 -31.15234375 5.83984375 C-28.77576212 4.87160679 -26.39582663 3.91972491 -24 3 C-23.31808594 2.69707031 -22.63617188 2.39414063 -21.93359375 2.08203125 C-14.82958815 -0.78922718 -7.5289848 -0.2678295 0 0 Z " fill="#085088" transform="translate(235,210)"/>
<path d="M0 0 C5.28 0 10.56 0 16 0 C15.85919445 2.77117304 15.71256882 5.54182641 15.5625 8.3125 C15.52318359 9.09818359 15.48386719 9.88386719 15.44335938 10.69335938 C15.40146484 11.45068359 15.35957031 12.20800781 15.31640625 12.98828125 C15.27974854 13.68477783 15.24309082 14.38127441 15.20532227 15.09887695 C15 17 15 17 14 20 C12.43675768 19.88465396 10.87440317 19.75724874 9.3125 19.625 C8.44238281 19.55539063 7.57226562 19.48578125 6.67578125 19.4140625 C3.87516565 18.98068257 1.58333448 18.14504555 -1 17 C-1.02699725 14.72923158 -1.04639453 12.45837179 -1.0625 10.1875 C-1.07990234 8.29064453 -1.07990234 8.29064453 -1.09765625 6.35546875 C-1 3 -1 3 0 0 Z M1.3125 2.4375 C-0.68791127 6.34306485 0.17478781 9.80218146 1 14 C3.82931852 14.80928705 6.31084077 15.11148599 9.25 15.0625 C10.4875 15.041875 11.725 15.02125 13 15 C14.94048082 8.04314701 14.94048082 8.04314701 14 1 C7.42847823 0.46138162 7.42847823 0.46138162 1.3125 2.4375 Z " fill="#F5F6F7" transform="translate(156,231)"/>
<path d="M0 0 C0.99 0.495 0.99 0.495 2 1 C2.6328125 3.06640625 2.6328125 3.06640625 3.125 5.5625 C3.29257813 6.38878906 3.46015625 7.21507812 3.6328125 8.06640625 C3.75398438 8.70449219 3.87515625 9.34257813 4 10 C3.67 10 3.34 10 3 10 C3 14.62 3 19.24 3 24 C16.53 24.66 30.06 25.32 44 26 C44 26.33 44 26.66 44 27 C37.8944529 27.02464513 31.78893449 27.04283371 25.68334961 27.05493164 C23.60456844 27.05997288 21.52579084 27.06680574 19.44702148 27.07543945 C16.46597414 27.08751422 13.48497351 27.09323024 10.50390625 27.09765625 C9.10078941 27.10539818 9.10078941 27.10539818 7.66932678 27.11329651 C6.37810158 27.11340981 6.37810158 27.11340981 5.06079102 27.11352539 C4.29912125 27.115746 3.53745148 27.11796661 2.75270081 27.12025452 C1 27 1 27 0 26 C-0.08748207 24.07332493 -0.10697334 22.14348139 -0.09765625 20.21484375 C-0.09443359 19.04501953 -0.09121094 17.87519531 -0.08789062 16.66992188 C-0.07951172 15.43822266 -0.07113281 14.20652344 -0.0625 12.9375 C-0.05798828 11.70193359 -0.05347656 10.46636719 -0.04882812 9.19335938 C-0.03699608 6.12885883 -0.02051173 3.06445279 0 0 Z " fill="#D9BB98" transform="translate(81,506)"/>
<path d="M0 0 C4.17033516 4.95134412 5.40593939 10.96722108 7.25 17.0625 C7.62640625 18.25939453 8.0028125 19.45628906 8.390625 20.68945312 C8.74125 21.83478516 9.091875 22.98011719 9.453125 24.16015625 C9.77442383 25.20824463 10.09572266 26.25633301 10.42675781 27.33618164 C11 30 11 30 10 33 C4.05975754 24.50350567 -0.21936947 14.69775426 -0.0625 4.1875 C-0.05347656 3.39730469 -0.04445312 2.60710937 -0.03515625 1.79296875 C-0.02355469 1.20128906 -0.01195312 0.60960937 0 0 Z " fill="#AABBD5" transform="translate(194,338)"/>
<path d="M0 0 C0.33 0 0.66 0 1 0 C1 2.64 1 5.28 1 8 C0.02160156 8.25523437 0.02160156 8.25523437 -0.9765625 8.515625 C-7.36754459 10.28775573 -12.87849377 11.92747374 -16.8125 17.625 C-17.204375 18.40875 -17.59625 19.1925 -18 20 C-18.33 20.66 -18.66 21.32 -19 22 C-20.32 22 -21.64 22 -23 22 C-23 21.34 -23 20.68 -23 20 C-26.3 20 -29.6 20 -33 20 C-30.50310435 17.50310435 -29.7369718 17.83872107 -26.3125 17.8125 C-21.01769324 17.40228542 -19.11096751 15.68550035 -15.71875 11.78125 C-12.27704523 8.21439233 -7.68116744 6.57231232 -3.0625 5 C-0.79525019 4.19140674 -0.79525019 4.19140674 -0.1875 1.875 C-0.0946875 0.946875 -0.0946875 0.946875 0 0 Z " fill="#FBFBFB" transform="translate(125,240)"/>
<path d="M0 0 C2.10516666 0.00849641 4.20760162 -0.02026611 6.3125 -0.05200195 C13.77893642 -0.08885931 19.38876315 0.30072283 25.7421875 4.44604492 C22.23877827 5.613848 20.57471199 4.88233409 17.11474609 3.9440918 C12.63446137 3.00359161 8.1145625 3.15396648 3.5546875 3.19604492 C2.54398193 3.19991211 1.53327637 3.2037793 0.49194336 3.20776367 C-6.91850031 3.29327564 -13.9968458 3.88514613 -21.2578125 5.44604492 C-15.21041958 -0.60134799 -7.95187716 -0.04896021 0 0 Z " fill="#FDFBFA" transform="translate(130.2578125,2.553955078125)"/>
<path d="M0 0 C0.33 0 0.66 0 1 0 C1.03738281 0.68707031 1.07476562 1.37414062 1.11328125 2.08203125 C1.17902344 2.98308594 1.24476563 3.88414062 1.3125 4.8125 C1.39951172 6.15248047 1.39951172 6.15248047 1.48828125 7.51953125 C2.07182321 10.34815069 2.92260556 11.10324856 5 13 C4.6875 15.1875 4.6875 15.1875 4 17 C0.04179141 16.43454163 -2.6659053 15.19097652 -6 13 C-5.42655063 10.13275314 -5.1385485 9.1385485 -3 7 C-2.835 6.175 -2.67 5.35 -2.5 4.5 C-2 2 -2 2 0 0 Z " fill="#F0C9D1" transform="translate(181,378)"/>
<path d="M0 0 C0.33 0 0.66 0 1 0 C1.07419134 4.21749219 1.1286204 8.43463811 1.16479492 12.65258789 C1.17987589 14.08722552 1.2003438 15.52181708 1.22631836 16.95629883 C1.26273437 19.01915859 1.27973243 21.08140858 1.29296875 23.14453125 C1.3086792 24.38565674 1.32438965 25.62678223 1.34057617 26.90551758 C1 30 1 30 0.00585938 31.91015625 C-3.28512576 33.69824749 -6.73922384 33.36411263 -10.38671875 33.29296875 C-11.20372757 33.28872391 -12.02073639 33.28447906 -12.86250305 33.28010559 C-15.47117107 33.26331691 -18.07906562 33.22566519 -20.6875 33.1875 C-22.45636905 33.17245337 -24.22525021 33.15876492 -25.99414062 33.14648438 C-30.32972496 33.11341286 -34.66473136 33.0616299 -39 33 C-39 32.67 -39 32.34 -39 32 C-27.12 31.67 -15.24 31.34 -3 31 C-1.58117422 26.03410978 -0.74436796 22.95134554 -0.5859375 18.06640625 C-0.54726562 17.00615234 -0.50859375 15.94589844 -0.46875 14.85351562 C-0.4378125 13.76748047 -0.406875 12.68144531 -0.375 11.5625 C-0.33632812 10.44939453 -0.29765625 9.33628906 -0.2578125 8.18945312 C-0.16409034 5.45979524 -0.07837706 2.73013437 0 0 Z " fill="#DABF9C" transform="translate(207,510)"/>
<path d="M0 0 C0.99 0 1.98 0 3 0 C3 1.32 3 2.64 3 4 C3.66 4 4.32 4 5 4 C5 2.68 5 1.36 5 0 C5.66 0 6.32 0 7 0 C7.3125 2.75 7.3125 2.75 7 6 C3.46588175 9.96249623 0.17980188 10.59374103 -5 11 C-5.33 9.35 -5.66 7.7 -6 6 C-4.02 6 -2.04 6 0 6 C0 4.02 0 2.04 0 0 Z " fill="#D5C7AE" transform="translate(177,413)"/>
<path d="M0 0 C5.26053037 -0.31563182 8.44573816 0.33409063 13 3 C12.67 4.32 12.34 5.64 12 7 C5.80660377 8.19103774 5.80660377 8.19103774 2.625 7.4375 C0.20309865 5.29504881 0.2713531 3.1205607 0 0 Z " fill="#2D6288" transform="translate(149,411)"/>
<path d="M0 0 C0 0.99 0 1.98 0 3 C-3.7223401 4.24078003 -7.18796033 4.14555459 -11.0625 4.125 C-11.79533203 4.12886719 -12.52816406 4.13273437 -13.28320312 4.13671875 C-18.74663018 4.12668491 -18.74663018 4.12668491 -21 3 C-21 2.34 -21 1.68 -21 1 C-13.97360585 0.25194283 -7.06608191 -0.13794954 0 0 Z " fill="#D7B088" transform="translate(117,408)"/>
<path d="M0 0 C1.17825358 0.90172468 2.34231577 1.82201502 3.5 2.75 C4.1496875 3.26046875 4.799375 3.7709375 5.46875 4.296875 C7 6 7 6 7 10 C0.375 10.25 0.375 10.25 -3 8 C-1.125 1.125 -1.125 1.125 0 0 Z " fill="#125083" transform="translate(72,373)"/>
<path d="M0 0 C3 1 3 1 4.1875 2.8125 C5 5 5 5 5 9 C1.7 9 -1.6 9 -5 9 C-3.96846241 4.87384964 -2.71595986 3.1540179 0 0 Z " fill="#145081" transform="translate(215,371)"/>
<path d="M0 0 C3.63 0 7.26 0 11 0 C10.67 1.32 10.34 2.64 10 4 C10 3.01 10 2.02 10 1 C9.34 1 8.68 1 8 1 C8 2.32 8 3.64 8 5 C2.79826905 5.86809439 -2.16978816 6.12515348 -7.4375 6.0625 C-8.16904297 6.05798828 -8.90058594 6.05347656 -9.65429688 6.04882812 C-11.43623419 6.03718148 -13.21812863 6.01925191 -15 6 C-15 5.67 -15 5.34 -15 5 C-10.05 5 -5.1 5 0 5 C0 3.35 0 1.7 0 0 Z " fill="#BFBDAE" transform="translate(182,422)"/>
<path d="M0 0 C0.66 0.66 1.32 1.32 2 2 C1.27554688 2.24234375 0.55109375 2.4846875 -0.1953125 2.734375 C-5.66914611 4.63197065 -10.37235947 6.49800176 -15 10 C-12.64530675 1.36612473 -8.85864243 -1.47073986 0 0 Z " fill="#A65B4B" transform="translate(247,249)"/>
<path d="M0 0 C2.64 0 5.28 0 8 0 C7.25 6.625 7.25 6.625 5 10 C4.34 10 3.68 10 3 10 C3 8.02 3 6.04 3 4 C1.35 4 -0.3 4 -2 4 C-1.34 2.68 -0.68 1.36 0 0 Z " fill="#A65B4B" transform="translate(241,270)"/>
<path d="M0 0 C1 3 1 3 1 6 C2.20398438 6.18175781 3.40796875 6.36351562 4.6484375 6.55078125 C6.22406776 6.80400754 7.79958287 7.05795109 9.375 7.3125 C10.1690625 7.43044922 10.963125 7.54839844 11.78125 7.66992188 C12.54179687 7.79560547 13.30234375 7.92128906 14.0859375 8.05078125 C14.7876709 8.16075439 15.4894043 8.27072754 16.21240234 8.3840332 C18 9 18 9 20 12 C19.28457031 11.7834375 18.56914062 11.566875 17.83203125 11.34375 C10.07176529 9.17529276 3.03448002 8.65011135 -5 9 C-3.35 6.03 -1.7 3.06 0 0 Z " fill="#F4F3F3" transform="translate(225,193)"/>
<path d="M0 0 C5.28 0 10.56 0 16 0 C15.67 5.61 15.34 11.22 15 17 C14.67 17 14.34 17 14 17 C14 12.05 14 7.1 14 2 C10.04 2 6.08 2 2 2 C1.34 3.65 0.68 5.3 0 7 C-0.93423645 3.98968256 -1.04449911 3.13349732 0 0 Z " fill="#EBE4E3" transform="translate(156,231)"/>
<path d="M0 0 C0.68835938 0.37125 1.37671875 0.7425 2.0859375 1.125 C2.59382813 1.41375 3.10171875 1.7025 3.625 2 C0.1237232 3.16709227 -1.63469471 2.46500705 -5.1015625 1.52050781 C-8.98892625 0.63048854 -12.90131833 0.53032306 -16.875 0.375 C-17.69742188 0.33632812 -18.51984375 0.29765625 -19.3671875 0.2578125 C-21.3694701 0.16468308 -23.37220262 0.08131015 -25.375 0 C-25.375 -0.33 -25.375 -0.66 -25.375 -1 C-23.00015638 -1.16920005 -20.62516522 -1.33542863 -18.25 -1.5 C-17.58484375 -1.54769531 -16.9196875 -1.59539062 -16.234375 -1.64453125 C-4.44692183 -2.45347411 -4.44692183 -2.45347411 0 0 Z " fill="#F6F1EB" transform="translate(152.375,5)"/>
<path d="M0 0 C2 2 2 2 3.1875 5 C4.79183056 8.35731279 4.79183056 8.35731279 8.6875 9.375 C9.780625 9.58125 10.87375 9.7875 12 10 C12 10.66 12 11.32 12 12 C4.73394495 12.60550459 4.73394495 12.60550459 1.5 9.9375 C-0.30854114 6.3957736 -0.30788712 3.92556076 0 0 Z " fill="#F9EBEE" transform="translate(163,379)"/>
<path d="M0 0 C0.33 0.66 0.66 1.32 1 2 C1.99 2.33 2.98 2.66 4 3 C7 6.44444444 7 6.44444444 7 9 C7.66 9.33 8.32 9.66 9 10 C2.25 9.25 2.25 9.25 0 7 C-0.125 3.375 -0.125 3.375 0 0 Z " fill="#DB748A" transform="translate(166,379)"/>
<path d="M0 0 C0 0.66 0 1.32 0 2 C-4.86051596 4.59227518 -9.65271133 4.18689553 -15 4 C-15 3.01 -15 2.02 -15 1 C-9.9752761 0.37470103 -5.07471573 -0.13012092 0 0 Z " fill="#A94940" transform="translate(150,166)"/>
<path d="M0 0 C1.98 0 3.96 0 6 0 C6 1.98 6 3.96 6 6 C4.02 6 2.04 6 0 6 C0 4.02 0 2.04 0 0 Z " fill="#366789" transform="translate(193,413)"/>
<path d="M0 0 C0.33 0 0.66 0 1 0 C1 1.65 1 3.3 1 5 C-0.22976562 5.05607422 -0.22976562 5.05607422 -1.484375 5.11328125 C-2.56203125 5.17902344 -3.6396875 5.24476563 -4.75 5.3125 C-5.81734375 5.37050781 -6.8846875 5.42851563 -7.984375 5.48828125 C-11.1821068 6.03090154 -12.62598691 6.85071145 -15 9 C-14.08622095 6.71555237 -13.38193539 5.27910663 -11.375 3.8125 C-9.1025549 3.03508457 -7.18922345 2.75085274 -4.8125 2.5 C-3.554375 2.335 -2.29625 2.17 -1 2 C-0.67 1.34 -0.34 0.68 0 0 Z " fill="#F1E4DC" transform="translate(50,534)"/>
<path d="M0 0 C1.65 0.33 3.3 0.66 5 1 C5.33 2.32 5.66 3.64 6 5 C3.625 5.625 3.625 5.625 1 6 C0.34 5.34 -0.32 4.68 -1 4 C-0.625 1.875 -0.625 1.875 0 0 Z " fill="#F6DEE2" transform="translate(180,389)"/>
<path d="M0 0 C3.63 0.66 7.26 1.32 11 2 C11 6.29 11 10.58 11 15 C10.67 15 10.34 15 10 15 C9.67 11.7 9.34 8.4 9 5 C4.545 4.01 4.545 4.01 0 3 C0 2.01 0 1.02 0 0 Z " fill="#F7F6F5" transform="translate(68,381)"/>
<path d="M0 0 C0.33 0.66 0.66 1.32 1 2 C-0.78910903 2.52955234 -2.58139148 3.0483937 -4.375 3.5625 C-5.87160156 3.99755859 -5.87160156 3.99755859 -7.3984375 4.44140625 C-10 5 -10 5 -12 4 C-7.99899414 0.12023674 -5.51903037 -0.43286513 0 0 Z " fill="#A75C4C" transform="translate(251,232)"/>
<path d="M0 0 C0.99 0.33 1.98 0.66 3 1 C2.71125 1.53625 2.4225 2.0725 2.125 2.625 C0.83288192 5.35280484 -0.08558592 8.12612718 -1 11 C-3 8 -3 8 -4 5 C-2.0625 2.3125 -2.0625 2.3125 0 0 Z " fill="#F3D4DA" transform="translate(167,373)"/>
<path d="M0 0 C2.64 0 5.28 0 8 0 C7.67 1.32 7.34 2.64 7 4 C7 3.01 7 2.02 7 1 C6.34 1 5.68 1 5 1 C5 2.32 5 3.64 5 5 C3.02 5 1.04 5 -1 5 C-0.34 4.67 0.32 4.34 1 4 C0.67 2.68 0.34 1.36 0 0 Z " fill="#7398AE" transform="translate(185,422)"/>
<path d="M0 0 C0.66 0 1.32 0 2 0 C2 1.32 2 2.64 2 4 C2.66 4 3.32 4 4 4 C4 2.68 4 1.36 4 0 C4.66 0 5.32 0 6 0 C6 1.98 6 3.96 6 6 C4.02 6 2.04 6 0 6 C0 4.02 0 2.04 0 0 Z " fill="#185583" transform="translate(178,413)"/>
<path d="M0 0 C0.33 0 0.66 0 1 0 C1 2.31 1 4.62 1 7 C-2.3 7 -5.6 7 -9 7 C-8.67 6.34 -8.34 5.68 -8 5 C-7.34 5 -6.68 5 -6 5 C-5.67 4.34 -5.34 3.68 -5 3 C-3.68 3.33 -2.36 3.66 -1 4 C-0.67 2.68 -0.34 1.36 0 0 Z " fill="#F9F4F2" transform="translate(255,207)"/>
<path d="M0 0 C0.99 0 1.98 0 3 0 C3 1.98 3 3.96 3 6 C1.35 6 -0.3 6 -2 6 C-2.33 4.68 -2.66 3.36 -3 2 C-2.01 2 -1.02 2 0 2 C0 1.34 0 0.68 0 0 Z " fill="#4B738E" transform="translate(174,411)"/>
<path d="M0 0 C2.22825644 2.22825644 2.69239369 3.65761628 3.625 6.625 C4.01558594 7.85089844 4.01558594 7.85089844 4.4140625 9.1015625 C4.60742188 9.72804688 4.80078125 10.35453125 5 11 C4.34 11 3.68 11 3 11 C2.67 11.66 2.34 12.32 2 13 C1.66127487 11.58461283 1.32925376 10.16762037 1 8.75 C0.814375 7.96109375 0.62875 7.1721875 0.4375 6.359375 C0 4 0 4 0 0 Z " fill="#875143" transform="translate(151,42)"/>
<path d="M0 0 C0.33 0 0.66 0 1 0 C1.25 7.625 1.25 7.625 -1 11 C-4.07692308 6.56923077 -4.07692308 6.56923077 -3.6875 3.6875 C-3.460625 3.130625 -3.23375 2.57375 -3 2 C-2.67 2.99 -2.34 3.98 -2 5 C-1.34 5.33 -0.68 5.66 0 6 C0 4.02 0 2.04 0 0 Z " fill="#F1E4DD" transform="translate(73,470)"/>
<path d="M0 0 C2.50357861 0.8345262 4.66785852 1.79371992 7 3 C7 3.66 7 4.32 7 5 C5.02 5 3.04 5 1 5 C0.67 3.35 0.34 1.7 0 0 Z " fill="#205A85" transform="translate(170,414)"/>
<path d="M0 0 C0.66 0 1.32 0 2 0 C1.67 0.99 1.34 1.98 1 3 C0.67 2.01 0.34 1.02 0 0 Z " fill="#FAFDFD" transform="translate(166,238)"/>
<path d="" fill="#FFFFFF" transform="translate(0,0)"/>
</svg>
